<?xml version="1.0"?>
<svg xmlns="http://www.w3.org/2000/svg" version="1.2" baseProfile="tiny" width="800" height="825" viewBox="0 0 800 825" stroke-linecap="round" stroke-linejoin="round" fill="white" stroke="#444">
<g id="eu_covid_lambert">
<path d="M 293.63 286.98 293.66 289.98 292.16 289.26 293.63 286.98 Z M 300.49 255.71 300.14 260.17 299.25 260.99 298.03 261.07 296.18 258.42 297.16 258.23 300.49 255.71 Z M 293.15 243.7 293.3 245.38 291.16 246.57 291.26 244.11 293.15 243.7 Z M 294.72 276.47 292.05 276.11 293.13 273.69 294.72 276.47 Z M 296.99 274.26 297 275.59 294.96 275.93 294.3 272.97 295.97 271.97 296.99 274.26 Z M 293.19 266.19 291.41 264.73 293.18 263.44 293.19 266.19 Z M 298.82 269.48 299.1 271.17 297.27 273.4 296.97 269.85 298.82 269.48 Z M 324.54 202.22 325.19 203.36 323.25 204.68 321.61 203.46 322.82 202.16 324.54 202.22 Z M 332.45 188.32 336.94 185.58 336.9 187.8 332.45 188.32 Z M 362.14 168.07 361.1 169.27 359.7 167.17 361.55 166.88 362.14 168.07 Z M 327.63 195.73 326.26 194.11 329.34 192.78 330.43 194.72 329.4 196.1 327.63 195.73 Z M 338.75 189.61 340.08 191.62 336.04 192.69 333.52 193.85 331.48 192.99 334.52 189.73 338.52 188.76 338.75 189.61 Z M 293.35 227.33 297.17 228.54 293.72 229.85 293.35 227.33 Z M 315.93 208.98 316.53 210.1 313.91 210.95 314.13 209.26 315.93 208.98 Z M 306.29 216.51 307.18 217.82 304.86 219.67 304.26 217.18 306.29 216.51 Z M 303.41 219.01 303.76 220.71 301.24 220.89 301.57 218.64 303.41 219.01 Z M 368.49 142.04 367.72 144.34 366.19 143.74 366.76 142.01 368.49 142.04 Z M 372.99 147.93 373.55 148.55 369.57 152.87 371.15 144.43 372.99 147.93 Z M 375.86 86.71 376.64 90.2 375.74 91.72 374.24 91.78 375.86 86.71 Z M 395.59 89.01 392.9 89.91 392.73 88.66 395.59 89.01 Z M 395.66 66.84 394.7 65.81 395.61 62.45 397.33 61.04 397.74 58.98 399.8 57.4 399.7 61 398.15 63.88 396.38 65.11 395.66 66.84 Z M 408.42 61.75 406.12 62.68 405.68 61.49 407.85 60.7 406.66 58.45 408.97 54.61 409.12 51.29 411.41 51.51 412.83 49.74 415.32 52.88 415.74 54.44 414.42 55.41 414.3 57.32 415.38 58.62 411.36 59.85 408.42 61.75 Z M 416.79 46.57 416.39 45.22 421.44 43.01 422.12 45 420.42 46.78 420.56 49.16 416.04 50.66 414.25 49.46 415.44 46.64 416.79 46.57 Z M 427.41 38.3 427.18 41.51 425.58 40.34 427.41 38.3 Z M 423.62 38.49 425.43 39.76 424.57 42.83 422.67 43.91 419.41 41.41 419.72 39.07 422.63 37.53 423.62 38.49 Z M 434.76 35.11 433.47 36.44 431.61 35.51 432.41 32.23 434.55 32.43 434.76 35.11 Z M 428.21 34.86 428.5 36.82 426.88 36.89 425.79 34.25 428.21 34.86 Z M 450.4 27.46 449.15 28.8 446.04 27.64 448.05 25.71 450.4 27.46 Z M 457.35 17.77 458.03 18.58 457.02 21.05 455.66 21.31 453.93 17.75 455.22 16.28 457.35 17.77 Z M 452.85 21.67 454.25 20.31 455.26 22.65 455.01 23.98 452.33 27.72 449.38 25.26 450.91 22.34 452.85 21.67 Z M 446.8 19.93 446.77 17.95 450.29 17.45 451.46 17.84 450.32 20.93 449.02 22.3 447.03 22.07 445.03 23.94 443.67 23.37 445 21 446.8 19.93 Z M 466.46 3.95 470.56 7.44 467 9.39 464.41 7.24 466.46 3.95 Z M 377.78 85.92 379.15 85.92 378.67 88.53 376.97 87.54 377.78 85.92 Z M 381.64 82.21 382.65 81.17 385.2 82.63 382.65 86.06 380.52 85.98 379.54 83.24 381.64 82.21 Z M 404.13 75.76 404.11 77.56 401.55 78.16 401.95 75.8 404.13 75.76 Z M 388.1 79.55 390.08 78.23 392.22 78.21 392.54 79.67 390.4 82.21 386.66 84.54 388.1 79.55 Z M 389.99 76.84 389.03 74.8 391.9 75.34 389.99 76.84 Z M 404.54 73.72 401.67 75.27 400.73 77.1 398.53 77.78 396.82 79.93 392.42 80.82 394.36 77.3 393.74 75.15 396.1 73.16 395.23 69.22 396.55 65.83 398.29 65.33 399.03 67.18 398.73 70.39 401.63 69.83 400.6 68.31 402.33 67.26 404.48 69.06 404.89 71.95 404.54 73.72 Z M 392.41 65.98 393.72 67.15 394.9 71.08 394.86 72.48 392.39 74.76 390.5 74.6 389.58 72.93 387.73 74.39 386.33 72.69 387.43 69.88 388.88 70.92 391.02 69.39 392.41 65.98 Z M 505.23 44.45 503.79 43.34 503.21 40.82 504.97 36.17 505.26 34 502.32 30.08 495.63 28.68 493.18 27.16 489.68 23.82 487.82 24.62 484.9 29.18 482.85 28.84 480.37 29.76 479.03 35.04 477.67 35.98 478.26 38.24 477.72 39.93 478.52 43.27 478.28 46.92 479.98 51.34 479.37 54.76 477.74 54.9 476.24 56.92 476.58 60.71 475.2 63.15 472.61 61.16 469.66 60.8 465.78 59.09 464.69 59.7 464.69 61.67 460.71 64.73 459.36 63.53 457.56 63.99 454.99 63.28 453.72 63.84 452.9 61.44 448.32 56.61 445.16 52.58 442.2 52.43 440.37 55.28 441.76 57.22 440.93 58.44 438.31 57.39 437.58 59.08 433.35 60.05 435.74 62.28 436.27 64.63 435.82 68.07 433.95 71.06 436.58 72.15 434.72 75.34 426.27 72.95 422.96 73.48 420.97 72.06 418.77 73.59 418.96 76.4 420 80.8 418.36 86.19 412.8 83.77 412.1 85.34 408.67 88.97 407.75 94.79 406.43 97.52 404.32 98.57 404.01 100.29 407.29 105.09 407.43 108.47 404.39 112.53 401.62 119.38 399.6 122.02 400.54 126.91 396.77 129.99 392 130.96 393.56 138.26 392.89 140.63 392.79 146.05 393.07 149.4 391.89 151.26 391.62 154.17 385.58 166.67 390.49 169.67 391.32 175.45 389.34 179.64 382.08 178.15 379.57 179 376.62 181.47 372.91 188.46 371.69 189.85 372.29 192.67 370.07 196.99 372.69 203.5 371.4 205.7 372.2 209.66 371.61 213.06 374.26 220.19 373.01 232.78 375.93 235.96 378.13 236.69 381.33 240.83 380.93 243.93 379.36 248.28 377.44 248.15 374.58 249.34 376.17 254.97 379.03 261.02 378.94 263.12 377.81 265.44 378.23 269.51 377.55 271.07 374.16 274.69 370.77 275.38 371.46 277.72 370.66 280.27 368.87 282.14 370.32 287.15 370.71 289.72 369.16 297.31 366.64 297.91 366.42 295.72 365.57 293.23 362.25 292.66 359.99 291.11 358.53 291.3 358.5 288.46 356.88 287.05 357.39 284.55 356.48 279.66 355.87 278.49 357.29 274.72 355.21 275.66 355.17 279.4 356.5 281.71 354.43 283.78 354.93 285.81 353.57 289.46 352.43 294.81 351.25 294.5 349.49 296.32 347.48 296.72 344.93 292.67 345.21 296.06 342.99 297.32 342.74 299.51 339.71 303.18 336.65 305.27 336.15 307.07 333.66 309.83 332.09 310.52 331.1 312.58 329.99 312.21 327.39 315.58 317.4 317.69 315.72 316.69 313.66 317.1 308.03 316.13 307.01 314.88 308.97 312.62 305.58 311.3 301.03 308.48 300.49 306.32 297.53 305.15 296.1 302.59 295.16 299.62 296.5 296.49 296.06 294.22 300.71 295.57 300.58 291.91 302.05 290.94 303.44 288.14 301.33 286.15 298.03 286.46 296.29 287.65 294.97 287.17 292.96 283.93 292.94 281.88 294.69 279.24 296.92 278.13 299.7 278.7 300.83 276.54 299.57 275.1 300.37 272.87 302.49 271.45 304.35 269.39 305.03 266.58 307.62 263.21 305.82 262.76 304.64 265.88 303.04 266.43 301.59 268.19 301.47 270.79 299.48 270.3 300.17 268.21 295.38 266.57 293.99 264.45 295.25 262.04 295.11 259.68 295.94 258.84 297.43 260.82 298.3 261.47 299.31 261.61 300.42 260.43 301.11 255.09 298.65 255.36 298.6 256.7 295.93 258.09 293.78 255.91 293.21 253.74 295.66 252.17 293.54 251.39 292.99 248.91 293.54 246.74 294.92 246.14 298.18 247.51 299.29 246.46 302.11 245.74 307.8 245.81 306.67 244.41 299.72 245.09 298.15 246.29 296.04 244.23 293.92 239.16 296.09 237.12 295.78 235.22 296.88 233.58 294.03 233.21 293.79 232.22 295.77 229.9 298.41 228.78 299.54 226.64 296.52 227.4 298.42 224.53 296.17 220.75 297.34 220.17 302.01 221.58 305.36 221 306.58 218.61 311.77 216.74 309.75 215.26 310.1 211.85 313.3 212.46 315.02 211.13 318.37 211.27 321.22 212.71 321.82 211.81 320.8 209.23 317.16 209.5 317.77 206.87 316.74 204.81 320.62 203.02 322.95 205.48 324.77 203.97 325.58 204.85 328.31 201.49 330.87 203.49 331.67 206.43 333.27 205.86 332.01 203.51 330.64 202.9 330.85 200.22 334.9 200.83 334.81 199.09 333.44 196.99 336.18 196.11 336.73 193.94 339.5 193.47 346.21 189.13 347.31 192.13 348.9 194.1 352.42 193.2 355.29 194.01 356.47 193.5 357.38 191.51 357.1 189.54 359.92 187.34 361.19 187.51 363.78 184.28 360.56 183.34 363.93 181.23 362.05 180.01 359.12 182.11 360.1 184.09 358.65 187.09 356.22 188.13 353.6 190.61 351.8 191.01 349.11 192.6 347.36 189.53 347.25 188.05 349.31 187.32 349.61 185.95 344.62 188.63 344.66 186.14 350.49 182.34 349.15 181.14 351.03 176.43 353.83 173.81 354.44 171.08 355.99 171.38 360.06 168.92 362.75 170.97 363.76 170.8 364.43 167.71 363.16 164.67 364.68 163.24 367.52 162.55 366.51 160.53 363.92 162.27 361.6 161.24 363.1 159.74 365.4 159.15 368.68 156.24 370.03 156.65 373.48 155.62 373.28 153.03 372.04 150.79 374.44 147.73 374.33 146.45 372.44 145.46 371.82 143.11 374.64 139.09 374.74 136.41 376.94 135.71 377.17 133.81 374.91 133.75 376.29 131.59 379.58 130.27 379.46 127.72 377.28 126.45 378.81 125.12 377.89 123.2 378.96 121.82 379.57 119.4 381.35 118.98 383.06 115.24 382.02 112.93 385.02 112.98 387.72 111.62 388.71 107.48 392.38 105.99 395.2 105.81 395.41 103.55 391.41 106 388.91 104.76 390.49 102.38 392.19 101.25 391.42 99.77 393.61 97.74 396.16 98.61 395.3 95.92 393.86 95.27 393.76 91.59 395.76 90.26 399.88 88.53 401.32 87.09 398.92 85.55 402.16 83.54 401.91 86.55 404.06 87.61 404.71 86.3 404.1 84.16 402.65 82.5 402.39 79.91 404.37 78.09 406.65 77.5 408.23 78.1 409.58 76.55 405.21 76.89 404.44 75.32 405.28 72.5 410.32 69.09 413.91 65.55 411.54 65.67 411.8 63.43 413.11 61.08 416.09 58.77 415.21 56.38 416.12 54.74 415.94 52.35 416.73 51.55 420.07 55.46 421.08 54.78 418.35 50.71 421.3 49.51 423.73 44.01 427.9 42.8 429.81 43.35 430.43 39.25 432.61 40.12 433.62 42.89 435.87 41.65 436.53 40.37 438.63 39.5 438.65 37.2 439.74 35.77 441.21 36.43 441.94 38.1 444.68 39.33 444.14 36.07 441.17 33.91 440.15 34.09 437.68 31.59 439.09 30.31 441.98 30.1 443.27 28.31 444.46 29.03 448.34 29.85 451.21 29.56 453.39 31.82 454.69 31.03 453.31 28.96 454.98 26.72 454.65 25.21 457.01 21.37 459.13 18.67 459.35 16.64 457.94 13.5 460.49 13.26 459.64 10.23 461 9.81 462.58 11.68 465.45 12.15 466.06 10.63 465.29 9.2 470.18 10.33 468.75 14.04 467.74 15.46 466.98 18.77 467.89 23.52 466.62 25.85 466.77 27.5 469.44 28.22 470.53 23.36 469.52 22.55 472.14 15.72 472.11 13.24 473.43 9.25 474.71 7.03 476.41 9.36 476.4 12.33 477.37 17.51 478.16 18.81 480.03 15.64 479.8 14.39 481.29 10.21 480.74 8.46 481.34 6.98 478.63 6.69 478.92 4.14 480.68 4.14 480.77 1.98 483.4 2.68 485.37 1 485.89 2.49 488.14 2.28 488.83 4.71 487.32 7.66 488.76 9.17 488.85 11.23 486.86 14.91 488.63 14.56 490.52 12.35 490.31 7.61 491.22 4.42 494.47 3.92 496.56 6.79 498.77 5.32 500.48 7.44 501.16 5.33 502.95 5.54 504.62 7.08 508.42 8.96 510.15 8.85 512.39 12.13 508.73 14.15 508.17 17.18 507.12 18.9 499.67 19.95 495.8 19.93 495.28 21.52 499.98 22.52 501.34 21.94 504.28 22.2 505.91 24.85 505.92 27.32 507.62 26.79 509.04 24.56 509.48 22.62 511.28 23.9 514.29 23.06 515.97 25.75 516.72 28.59 515.79 29.44 511.47 29.89 511.49 32.68 510.68 34.76 506.66 37.48 506.86 42.28 505.23 44.45 Z" id="Norway" data-med_age="39.7" data-d_per_mil="238.765"/>
<path d="M 370.55 317.08 369.53 319.47 368.03 319.53 367.72 317.43 370.55 317.08 Z M 371.28 313.11 371.32 315.51 370.16 316.17 366.72 314.81 370.42 311.87 371.28 313.11 Z M 430.68 350.48 430.61 348.28 432.69 340.75 434 339.89 435.48 334.8 436.02 330.44 437.44 332.1 435.42 341.56 434.71 342.3 434.08 347.06 432.41 355.39 431.43 355.71 430.68 350.48 Z M 453.71 333.67 454.14 335.78 452.41 337.7 451.01 330.58 450.18 330 450.84 327.13 449.76 323.35 451.83 320.22 453.15 317.04 454.83 316.07 455.45 314.2 457.63 314.45 459.5 313.83 460.67 315.59 457.55 318.1 457.35 320.85 458.18 324.64 459.67 324.69 457.1 328.3 457.84 329.46 454.59 331.91 453.71 333.67 Z M 366.42 295.72 366.64 297.91 369.16 297.31 370.71 289.72 370.32 287.15 368.87 282.14 370.66 280.27 371.46 277.72 370.77 275.38 374.16 274.69 377.55 271.07 378.23 269.51 377.81 265.44 378.94 263.12 379.03 261.02 376.17 254.97 374.58 249.34 377.44 248.15 379.36 248.28 380.93 243.93 381.33 240.83 378.13 236.69 375.93 235.96 373.01 232.78 374.26 220.19 371.61 213.06 372.2 209.66 371.4 205.7 372.69 203.5 370.07 196.99 372.29 192.67 371.69 189.85 372.91 188.46 376.62 181.47 379.57 179 382.08 178.15 389.34 179.64 391.32 175.45 390.49 169.67 385.58 166.67 391.62 154.17 391.89 151.26 393.07 149.4 392.79 146.05 392.89 140.63 393.56 138.26 392 130.96 396.77 129.99 400.54 126.91 399.6 122.02 401.62 119.38 404.39 112.53 407.43 108.47 407.29 105.09 404.01 100.29 404.32 98.57 406.43 97.52 407.75 94.79 408.67 88.97 412.1 85.34 412.8 83.77 418.36 86.19 420 80.8 418.96 76.4 418.77 73.59 420.97 72.06 422.96 73.48 426.27 72.95 434.72 75.34 436.58 72.15 433.95 71.06 435.82 68.07 436.27 64.63 435.74 62.28 433.35 60.05 437.58 59.08 440.18 59.95 440.48 61.9 441.95 62.24 445.96 65.81 450.27 67.82 451.96 69.64 453.9 69.31 458.52 70.35 461.19 72.28 463.91 75.12 465.02 77.11 467.9 78.89 466.77 81.12 467.42 83.96 468.76 87.21 468.19 89.69 471.42 90.57 471.81 93.54 470.79 94.43 471.13 96.87 473.03 99.68 475.57 102.16 476.62 103.9 475.89 105.32 476.73 109.53 475.17 112.3 477.06 117.82 478.8 118.53 480.56 120.8 483.03 125.59 481.28 126.74 475.69 127.07 473.95 129.21 471.03 128.59 468.31 129.09 465.85 128.58 467.26 133.06 464.82 136.29 464.55 138.39 462.69 139.31 460.68 139.23 459.62 140.83 462.32 142.03 460.98 143.16 461.93 144.82 460.55 149.91 459.28 150.28 459.14 153.03 459.96 154.94 459.39 156.8 461.93 157.87 463.05 159.07 464.18 161.83 463.04 164.14 461.85 164.88 459.72 168.89 459.66 172.75 458.89 175.53 456.88 178.02 455.6 178.39 454.94 181.12 452.04 181.7 449.75 184.88 446.95 186.55 445.13 187.02 444.98 189.75 444.1 190.65 443.68 193.71 442.14 193.14 438.73 195.77 438.2 198.06 438.91 200.66 437.69 202.37 435.39 204.14 434.49 202.31 433.1 203.36 434.15 206.87 435.08 208.24 430.16 212.31 428.47 210.24 427.63 211.92 428.36 214.82 430.62 217.85 430.17 221.12 429.16 223.87 429.36 226.71 430.29 228.95 427.21 231.26 426.89 232.53 428.37 234.31 427.98 238.46 429.47 240.28 429.57 246.89 430.68 247.94 431.32 252.58 432.84 254.05 435.01 253.27 436.07 256.21 437.89 254.4 439.35 253.91 439.8 255.88 442.06 257.9 445.47 259 445.83 262.55 448.6 263.26 450.81 264.84 452.08 267.49 454.17 268.4 452.04 270.83 454.17 270.98 450.72 274 450.13 276.15 447.41 278.97 444.08 280.22 443.97 281.2 446 282.76 446.98 281.34 448.97 281.76 446.85 284 448.88 286.49 446.59 287.32 444.63 288.93 444.03 292.18 439.76 292.53 438.33 294 437.5 296.54 432.44 300.26 428.99 300.56 432.94 303.32 430.31 305.5 430.62 308.46 432.24 310.58 430.69 315.11 432.15 317.58 428.47 317.52 431.74 320.7 430.3 321.62 432.21 326.94 430.66 329.15 430.08 333.94 431.31 335.38 430.08 338.08 430.6 339.16 430 345.86 428.21 347.24 427.21 350.86 426.6 355.54 424.55 359.6 420.92 357.07 419.78 357.9 417.23 357.82 415.97 358.73 412.88 358.49 409.96 358.8 409.49 360 410.72 361.91 407.01 362.13 404.1 366.2 403.79 369.37 406.27 373.38 404.06 377.07 400.29 376.27 396.81 376.83 393.64 378.65 392.32 378.72 388.32 377.57 387.37 374.29 389.02 370.85 387.09 369.32 387.21 367.7 385.81 366.54 384.81 364.05 382.77 361.22 381.39 357.76 385.18 358.71 384.22 355.72 382.76 354.4 383.9 353.25 385.44 353.77 386.63 351.31 385.74 348.99 383.96 349.12 382.4 346.81 382.12 345.18 378.99 342.93 377.83 340.23 375.54 332.21 372.9 329.3 372.09 325.43 370.35 324.82 370.04 322.17 371.33 317.89 371.83 313.18 371.22 310.9 368.53 312.7 368.01 310.81 364.5 310.14 363.94 308.93 364.45 303.97 363.44 302.05 364.07 299.98 363.59 297.36 362.52 296.67 363.48 293.74 365.39 293.44 366.42 295.72 Z" id="Sweden" data-med_age="41" data-d_per_mil="1506.866"/>
<path d="M 391.95 399.29 391.95 398.01 394.32 396.14 398.48 396.96 397.31 398.26 397.94 402.12 396.33 401.57 394.83 404.27 392.52 403.34 391.18 401.97 391.95 399.29 Z M 366.13 399.49 365.26 400.71 362.79 399.78 364.31 398.2 366.13 399.49 Z M 342.27 559.22 338.02 556.53 334.04 555.83 332.32 556.43 330.66 554.83 329.4 555.4 328.31 553.16 325.5 553.73 324.36 555.18 325.19 557.85 321.01 557.03 319.55 558.1 312.69 558.27 311.77 557.48 310.78 555.37 310.99 552.89 312.58 547.9 311.96 546.71 312.63 543.85 314.85 540.19 314.7 538.69 315.93 536.13 316.61 532.95 320.32 529.63 322.07 526.21 318.06 524.35 313.73 524.18 311.89 523.03 311.26 521.45 309.7 521.06 308.19 522.41 306.39 522.13 304.26 520.5 301.64 519.75 299.79 520.83 297.03 514.59 294.57 513.76 295.65 509.2 297.16 507.98 297.29 506.06 295.74 505.69 293.24 503.76 291.56 499.95 291.96 498.32 292.67 496 295.78 494.22 295.76 491.31 293.1 488.64 293.23 486.38 290.94 483.77 292.13 480.21 291.17 476.31 293.64 474.65 292.4 473.22 294.54 470.28 294.73 466.49 293.3 464.43 293.55 463.32 291.37 461.18 291.37 459.25 294.25 457.54 297.8 459.32 299.93 458.3 303.02 457.71 304.02 456.11 302.18 454.76 307.35 450.29 307.78 447.4 306.8 445.37 303.55 445.18 302.67 443.11 303.42 441.19 307.88 440.9 308.56 436.47 310.22 433.66 310.62 427.26 311.51 425.58 308.56 424.79 308.46 422.44 309.45 419.34 311.43 417.59 315.23 417.45 321.37 416.64 324.22 420.6 322.69 421.74 323.22 423.01 325.4 423.87 326.19 422.45 325.07 421.27 325.66 419.26 329.48 420.94 328.65 417.32 329.91 413.72 331.28 412.97 333.81 414.41 338.58 413.53 334.6 411.97 333.51 409.68 335.73 409.85 335.17 407.09 333.29 406.36 334.35 403.54 331.52 404.29 330.52 403.28 331.17 401.13 334.37 400.92 336.08 398.91 331.85 393.58 331.55 389.87 334.78 389.88 338.62 391.03 339.26 392.15 341.84 391.98 343.78 391.53 346.97 393.24 348.61 392.72 349.83 395.31 349.67 397.77 347.75 400.01 351.23 399.33 351.88 401.52 353.58 400.44 359.15 403.46 361.87 401.83 363.64 402.29 363.7 406.31 361.38 408.21 359.89 410.36 361.83 411.45 365.23 410.1 366.18 411.76 369.12 412.36 369.53 410.38 371.7 407.12 377.77 406.02 380.82 403.14 382.83 399.17 385.45 400 387.94 401.47 389.65 399.73 391.23 403.3 393.62 404.25 396.31 406.63 399.01 405.51 400.77 406.88 400.18 408.61 402.12 411.23 401.19 412.08 403.57 414.35 407.47 415.83 408.16 419.73 409.14 421.63 409.97 425.39 409.99 428.78 409.07 431.19 406.83 432.92 406.69 435.44 410.43 437.82 411.2 438.97 414.33 441.29 414.27 443.14 413.09 444.94 413.9 447.9 415.78 449.06 415.59 451.72 416.71 452.67 415.91 456.52 414.55 458.6 415.64 461.02 416.93 462.29 417.14 465.57 420 466.63 421.72 471.69 421.03 475.72 419.25 480.58 417.71 481.66 416.32 480.89 416.53 479.32 413.97 477.2 411.42 476.95 412.48 480.5 410.82 480.62 408.06 482.54 406.01 483.16 405.24 484.51 401.21 485.1 399.74 487.69 398.55 487.03 396.6 488.19 395.63 490.19 393.43 490.38 392.17 492.44 390.66 491.63 388.86 492.81 386.2 493.04 383.74 496.12 383.28 498.38 380.95 494.98 379.96 496.59 381.41 497.93 382.57 501.07 385.64 502.45 386.78 504.15 385.81 507.06 384.81 507.94 386.55 509.56 388.94 515.01 391.03 517.16 392.63 516.93 394.4 517.89 397.25 521.83 399.1 522.32 400.48 524.57 402.02 525.77 403.93 525.48 407.27 529.45 407.24 533.01 406.04 535.14 402.98 533.85 402.12 535.46 401.45 538.7 399.51 540.39 395.85 541.55 393.3 543.19 391.55 545 391.68 546.05 394.59 549.38 395.59 551.13 394.16 554.03 396.15 554.19 397.01 555.38 396.62 559.22 395.17 559.8 392.55 557.97 392.19 555.4 390.5 555.28 387.88 556.32 386.68 554.98 384.06 555.4 383.1 557.13 379.4 557.1 377.63 557.96 374.51 557.7 373.47 559.47 371.32 559.69 368.62 562.31 366.23 562.45 362.58 560.12 358.4 558.57 356.02 559.05 356 562.4 354.1 564.57 352.58 562.96 350.61 563.27 350.43 561.43 348.47 559.1 346.72 559.24 345.92 558 344.28 559.51 342.27 559.22 Z M 406.37 411.79 402 412.82 402.7 411.51 402.2 409.91 404.18 408.99 406.42 410.4 406.37 411.79 Z" id="Germany" data-med_age="46.6" data-d_per_mil="1336.238"/>
<path d="M 253.77 466.64 256.61 465.94 259.54 467.73 262.45 467.48 266.26 467.87 265.37 469.45 261.73 471.24 257.33 468.92 254.21 469.7 253.77 466.64 Z M 264.2 460.37 263 461.71 260.99 459.79 262.92 458.99 264.2 460.37 Z M 290.94 483.77 288 483.56 285.65 481.62 289.19 474.72 285.13 472.69 284.39 471.03 280.35 471.42 278.33 468.39 276.17 468.06 273.76 465.73 272.2 467.17 268.62 466.33 268.96 468.35 266.83 467.89 262.63 465.55 260.65 466.88 258.8 465.26 256.61 464.96 255.52 462.86 257.24 461.89 261.41 461.88 264.16 464.47 264.73 465.96 267 466.17 266.66 464.41 264.7 463.9 264.5 462.13 265.46 460.62 264.35 458.12 264.47 453.43 266.29 453.16 268.5 450.86 272.04 445.98 273.58 442.17 274.5 437.76 276.25 431.93 278.65 433.33 281.01 432.38 285.4 429.37 286.52 426.59 288.62 424.83 294.1 422.77 298.13 422.83 304.45 422.03 306.29 422.72 306.67 424.64 309.07 426.69 310.62 427.26 310.22 433.66 308.56 436.47 307.88 440.9 303.42 441.19 302.67 443.11 303.55 445.18 306.8 445.37 307.78 447.4 307.35 450.29 302.18 454.76 304.02 456.11 303.02 457.71 299.93 458.3 297.8 459.32 294.25 457.54 291.37 459.25 291.37 461.18 293.55 463.32 293.3 464.43 294.73 466.49 294.54 470.28 292.4 473.22 293.64 474.65 291.17 476.31 292.13 480.21 290.94 483.77 Z" id="Netherlands" data-med_age="43.2" data-d_per_mil="1222.785"/>
<path d="M 492.61 665.26 493.95 668.4 489.26 665.63 488.75 664.28 486.29 663.83 483.12 661.85 482.88 660.98 480.1 661.04 475.08 659.88 471.04 657.76 471.4 656.8 474.02 657.58 475.31 658.74 478.63 659.12 480.85 658.65 482.25 660.45 488.85 664.09 492.61 665.26 Z M 469.69 658.19 465.11 660.2 462.05 659.99 462.73 658.36 464.53 658.84 467.99 658.05 469.69 658.19 Z M 458.48 651.97 457.04 649.57 461.44 649.58 464.99 650.75 463.75 651.88 458.48 651.97 Z M 462.01 655.27 459.74 655.11 459.63 653.14 461.27 653.3 462.01 655.27 Z M 434.37 629.8 430.23 626.09 430.98 625.59 436 629.47 434.37 629.8 Z M 477.3 658.08 472.46 654.29 469.94 653.28 464.61 648.63 460.27 648.03 457.26 646.06 455.25 646.11 449.04 647.71 448.28 643.8 439.95 638.66 434.41 632.91 435.33 631.07 438.67 629.82 436.61 628.86 432.84 625.19 431.6 624.5 429.35 621.11 429.14 618.36 429.63 615.69 428.14 612.42 425.01 610.52 422.87 608.65 419.75 607.28 418.63 608.76 418.19 611.89 417.03 613.5 417.06 616.03 415.18 616.61 414.32 619.64 412.3 619.74 412.12 618.34 408.97 614.53 407.55 611.49 407.79 609.44 406.73 608.09 406.1 604.32 407.36 604.79 412.27 606.04 413.76 603.93 415.89 604.71 417.51 604.06 420.02 604.36 421.51 603.18 422.94 599.9 424.72 602.79 428.25 604.04 428.55 602.99 432.47 604.67 435.44 603.93 434.29 600.59 435.92 599.59 433.82 598.05 436.61 596.42 436.72 595.59 439.68 595.17 440.38 590.02 438.58 587.92 439.07 586.58 441 586.08 445.59 583.27 445.61 581.87 448.61 580.99 448.2 579.18 449.77 577.69 452.61 578.42 454.96 579.07 458.75 582.23 461.84 585.6 464.39 586.2 466.92 589.67 470.88 589.72 472.08 591.53 476.24 592.48 479.07 592.65 481.13 592.11 484.32 592.75 486.84 590.73 487.92 588.51 489.89 588.85 491.77 587.5 491.17 590.25 493.53 593.36 492.76 594.6 496.15 596.67 494.49 597.75 497.66 601.73 500.99 602.16 501.7 603.85 496.16 605.33 497.27 608.9 496.41 611.58 494.37 611.93 492.51 610.94 492.7 609.52 490.47 607.22 487.24 608.01 486 607.1 483.08 606.39 482.46 607.59 479.56 606.96 477.97 608.71 476.45 609.12 474.12 607.2 472.4 608.38 470.21 607.64 469.28 608.25 467.33 607.29 466.1 608.36 462.04 606.74 459.95 608.18 455.29 607.66 453.23 610.26 452.26 613.01 450.53 612.46 446.87 608.46 443.58 609.22 442.83 618.32 444.47 620.65 445.78 619.91 449.87 624.25 452.06 631.27 454.12 633.99 455.61 634.48 460.4 639.01 461.09 640.54 463.07 641.83 467.39 645.56 471 646.7 471.65 650.32 474.68 653.6 477.31 655.06 478.62 657.4 477.3 658.08 Z M 423.38 622.9 421.98 623.11 419.47 617.47 422.03 617.01 422.64 621.89 423.38 622.9 Z M 426.42 616.25 424.58 614.5 422.84 614.43 421.37 613.25 422.86 611.75 423.22 610.06 425.18 611.31 425.28 613.02 427.58 614.76 426.42 616.25 Z" id="Croatia" data-med_age="44" data-d_per_mil="3071.792"/>
<path d="M 493.4 255.01 495.52 254.25 496.39 256.81 495.35 258.5 492.61 260.15 491.35 256.82 493.4 255.01 Z M 494.82 141.11 493.23 141.73 491.82 143.81 490.81 142.39 493.1 140.55 494.82 141.11 Z M 467.88 188.56 466.42 191.04 464.64 189.34 465.91 188.09 467.88 188.56 Z M 483.03 125.59 480.56 120.8 478.8 118.53 477.06 117.82 475.17 112.3 476.73 109.53 475.89 105.32 476.62 103.9 475.57 102.16 473.03 99.68 471.13 96.87 470.79 94.43 471.81 93.54 471.42 90.57 468.19 89.69 468.76 87.21 467.42 83.96 466.77 81.12 467.9 78.89 465.02 77.11 463.91 75.12 461.19 72.28 458.52 70.35 453.9 69.31 451.96 69.64 450.27 67.82 445.96 65.81 441.95 62.24 440.48 61.9 440.18 59.95 437.58 59.08 438.31 57.39 440.93 58.44 441.76 57.22 440.37 55.28 442.2 52.43 445.16 52.58 448.32 56.61 452.9 61.44 453.72 63.84 454.99 63.28 457.56 63.99 459.36 63.53 460.71 64.73 464.69 61.67 464.69 59.7 465.78 59.09 469.66 60.8 472.61 61.16 475.2 63.15 476.58 60.71 476.24 56.92 477.74 54.9 479.37 54.76 479.98 51.34 478.28 46.92 478.52 43.27 477.72 39.93 478.26 38.24 477.67 35.98 479.03 35.04 480.37 29.76 482.85 28.84 484.9 29.18 487.82 24.62 489.68 23.82 493.18 27.16 495.63 28.68 502.32 30.08 505.26 34 504.97 36.17 503.21 40.82 503.79 43.34 505.23 44.45 501.75 48.49 505.33 49 505.37 51.55 504.53 56.51 508.5 63.17 509.24 63.71 514.93 64.48 519.35 69.15 523.34 71.27 523.83 75.39 521.94 80.98 520.45 88.76 521.41 92.17 524.53 95.04 527.63 98.67 530.17 102.8 533.66 106.09 537.26 111.87 538.38 114.2 535.24 117.12 536.94 118.17 536.43 119.95 537.5 123.67 536.85 126.11 539.41 126.09 540.07 128.57 538.76 129.33 538.61 131.45 540.7 134.5 541.78 135.23 544.51 134.7 546.25 136.64 546.4 138.19 545.01 139.73 546.79 141.53 547.78 143.9 550.27 144.2 553.24 145.66 554.61 150.02 552.84 156.08 551.04 157.85 557.64 162.34 561.88 163.39 564.03 164.82 566.85 165.79 568.26 168.06 571.27 169.87 572.75 171.35 572.34 174.32 572.45 181.21 570.83 185.21 570.68 186.63 568.62 189.91 566.86 195.29 564.93 202.22 562.81 208.06 559.43 216.17 556.63 219.74 555.52 223.27 554.26 224.29 551.76 229.16 549.3 234.68 547.84 237.01 546.25 236.4 544.82 237.14 542.73 236.19 540.98 236.96 540.79 238.38 538.72 239.62 535.4 240.74 529.56 244.06 528.48 247.17 525.39 245.82 525.56 247.69 522.16 248.47 522.44 249.69 520.78 251.06 516.03 252.56 516.34 254.07 514.99 255.95 511.51 255.48 507.49 258.04 503.67 259.06 501.01 261.15 499.99 259.34 496.3 255.12 497.47 252.72 496.55 251.97 494.59 254.16 491.35 254.12 492.77 251.28 488.97 251.79 485.99 250.99 482.76 248.35 481.16 248.81 478.85 248.24 477.73 244.91 476.42 243.52 477.34 242.25 475.19 238.31 477.21 237.98 476.34 235.56 477.47 234.57 475.94 228.91 475.48 224.51 472.64 218.27 470.91 217.45 470.55 208.88 468.47 207.69 466.56 202.01 467.25 200.95 467.53 197.41 468.75 197.44 469.49 195.18 468.93 193.19 469.38 191.11 468.8 189.29 472.67 187.44 472.88 189.33 475.67 187.57 477.32 185.21 475.03 183.05 477.14 181.13 477.26 178.17 478.7 176.06 480.51 177.04 480.57 173.55 482.7 171.07 484.96 169.99 484.19 166.93 486.5 166.96 486.81 162.65 487.69 162.2 489.22 156.94 491.29 154.19 491.32 150.78 493.41 146.11 496.52 143.95 498.28 145.81 499.54 145.29 499.59 142.12 496.83 137.45 496.06 131.17 492.59 128.44 490.35 127.88 488.76 128.78 486.47 125.5 485.55 126.32 483.03 125.59 Z" id="Finland" data-med_age="42.8" data-d_per_mil="308.92"/>
<path d="M 170.09 582.2 169.23 583.51 167.68 581.08 168.49 579.77 170.09 582.2 Z M 203.85 664.18 202.66 661.43 199.43 661.1 198.55 659.5 195.75 658.86 192.61 657.07 191.45 657.09 190.82 660.56 184.58 660.13 182.95 658.58 179.34 659.06 175.03 654.83 173.18 655.77 171.39 655.12 168.16 652.88 168.03 651.43 164.96 650.95 163.66 649.86 159.74 647.88 157.03 647.72 158.23 643.09 155.79 641.77 152.66 641.03 152.23 638.84 154.48 638.88 158.12 635.26 160.71 628.48 164.73 615.66 164.92 613.65 166.42 611.34 168.55 610.45 167.02 608.81 165.79 610.28 169.86 592.71 171.51 592.56 173.32 594.15 175.31 597.32 175.83 595.13 174.7 592.86 169.72 587.57 169.41 585.62 172.27 583.45 173.08 580.59 170.89 574.41 167.52 571.01 162.89 568.26 162.82 565.93 161.8 563.49 158.95 559.68 159.26 558.14 161.77 555.48 159.55 552.03 159.75 550.23 158.09 549.95 155.88 548.17 154.32 546.12 155.66 545.6 155.7 543.01 152.12 541.82 152.2 539.78 147.14 540.35 143.57 536.32 141.76 536.3 141.05 534.65 136.2 533.07 134.94 530.51 132.67 530.54 130.54 531.94 128.95 530.21 128.12 527.4 124.54 524.36 130.97 524.69 131.07 522.8 126.6 519.78 125.05 515.52 126.07 513.48 129.05 512.23 132.55 511.77 134.41 512.55 138.28 511.62 138.25 513.38 140.72 512.08 144.11 513.78 144.37 511.43 145.57 510.45 147.18 511.56 150.17 510.64 151.83 510.78 152.39 512.96 155.1 516.49 155.08 517.87 157.76 519.62 158.69 518.73 162.9 516.88 164.45 519.07 167 518.86 170.03 517.75 170.4 520.05 175.86 519.83 174.5 517.65 174.53 514.96 175.62 511.23 175.37 508.55 174.2 503.82 172.86 502.55 172.39 499.04 173.09 496.1 173.98 495.55 178.36 496.93 180.03 496.05 182.13 496.75 182.4 498.46 181.01 499.78 182.45 503.33 187.51 505.32 193.54 506.66 196.19 508.49 199.81 507.72 203.83 505.26 201.37 503.28 203.24 499.9 204.31 499.17 210.01 496.95 212.48 496.85 218.77 495.64 223.52 492.24 225.03 489.04 226.25 483.27 226.39 479.92 227.3 477.44 227.15 475.6 229.49 474.13 232.39 473.23 241.26 472.08 242.21 475.1 241.63 477.71 243.07 478.71 244.25 480.8 248.97 479.85 250.66 482.05 250.87 485.97 256.15 488.32 256.16 491.24 257.58 490.74 261.21 491.09 263.42 492.91 262.61 496.19 263.73 497.85 262.42 499.71 266.72 501 270.2 499.98 270.73 497.83 272.83 496.2 273.62 496.75 272.03 500.82 273.09 501.93 272.73 504.65 274.51 504.71 277.33 507.43 278.67 507.42 280.52 509.44 281.65 512.13 284.21 511.16 286.38 511.43 288.8 513.78 291.49 512.69 294.57 513.76 297.03 514.59 299.79 520.83 301.64 519.75 304.26 520.5 306.39 522.13 308.19 522.41 309.7 521.06 311.26 521.45 311.89 523.03 313.73 524.18 318.06 524.35 322.07 526.21 320.32 529.63 316.61 532.95 315.93 536.13 314.7 538.69 314.85 540.19 312.63 543.85 311.96 546.71 312.58 547.9 310.99 552.89 310.78 555.37 311.77 557.48 308.58 560.85 306.22 561.14 305.39 559.47 302.6 559.14 300.37 562.35 302.53 562.12 301.67 564.91 297.34 568.56 295.82 570.6 293.32 571.45 292.91 575.65 288.03 579.2 286.75 582.13 287.82 584.36 286.96 587.17 284.83 587.84 287.12 589.65 290 587.47 289.12 585.38 290.5 583.95 293.44 582.85 297.86 583.49 297.58 585.4 298.74 587.2 297.64 589.86 299.26 590.83 301.53 595.22 300.3 596.72 297.89 597.34 298.02 600.32 300.34 601.7 300.54 604.69 303.33 607.1 301.57 611.44 299.88 611.58 297.94 613.32 296.22 612.62 293.99 613.76 295.87 615.91 295.86 617.86 297.74 619.53 299.14 619.53 300.16 621.13 299.14 624.95 297.26 626.97 298.52 629.27 297.61 630.7 299.42 633.77 300.46 633.84 305.08 636.65 309.29 635.98 310.97 637.64 309.96 639.83 307.33 642.68 307.68 644.38 305.48 645.36 304.74 646.7 301.72 647.31 300.6 649.24 298.69 649.67 297.22 652.34 294.74 652.46 294.2 653.98 292.11 655.41 293.42 657.36 288.05 659.01 282.14 659.16 279.73 659.72 276.45 656.98 274.01 656.1 271.02 655.84 271.05 653.13 265.94 652.77 265.91 651.07 264.32 650.26 262.37 652.28 258.57 651.7 257.4 649.41 252.27 648.93 250.74 646.7 248.18 646.77 244.4 649.38 242.36 650.08 240.37 652.07 238.23 651.81 235.75 653.08 233.34 655.46 231.76 659.07 231.97 659.91 231.22 664.99 231.21 667.94 232.6 668.76 233.16 670.96 231.54 670.91 229.03 669.69 226.45 670.78 224.78 670.75 221.62 672.29 217.82 669.54 215.41 669.57 214.03 670.77 212.36 670.38 211.9 668.72 208.32 666.81 208.82 664.4 204.59 663.2 203.85 664.18 Z" id="France" data-med_age="42" data-d_per_mil="1836.27"/>
<path d="M 633.25 819.33 628.69 820.39 628.66 817.85 627.49 816.81 624.79 817.1 621.44 815.77 619.44 816.35 615.47 816.58 610.48 816.38 606.06 817.48 604.53 816.17 605.12 813.14 606.14 811.29 607.55 810.9 606.93 807.87 607.96 807.57 609.3 810.07 613.56 809.46 614.02 807.93 615.91 807.68 616.47 810.67 619.71 812.46 626.49 809.34 628.81 809.42 631.15 808.49 632.98 809.73 636.7 809.44 638.98 808.81 641.13 809.43 643.85 807.75 646.25 807.49 645.87 811.12 648.3 812.02 649.28 810.36 652.25 808.61 654.44 808.75 655.6 806.7 657 808.78 656.28 812.27 654.69 813.46 651.52 813.28 648.36 814.71 644.48 815.34 642.82 816.35 639.05 817.11 637.38 818.22 633.25 819.33 Z M 591.7 795.31 592.88 797.23 591.9 799.23 590.15 797.94 589.57 794.98 591.7 795.31 Z M 682.02 775.67 684.57 773.39 686.58 774.55 686.29 777.43 685.01 780.58 680.93 786.86 679.4 785.76 679.61 782.62 677.94 781.29 679.36 780.03 679.65 778.17 682.02 775.67 Z M 630.41 770.92 629.01 772.68 627.36 772.37 627.81 770.01 629.74 769.31 630.41 770.92 Z M 634.27 766.7 635.69 767.66 635.68 771.7 634.02 773.22 632.64 771.91 631.92 769.68 634.27 766.7 Z M 651.76 776.01 652.05 778.79 650.39 778.4 651.76 776.01 Z M 667.21 766.24 665.14 770.16 663.55 768.68 665.17 767.1 667.21 766.24 Z M 631.61 778.33 631.93 776.51 634.12 777.99 633.7 779.44 631.61 778.33 Z M 616.95 780.58 618.35 781.83 614.62 783.25 614.73 780.84 616.95 780.58 Z M 548.45 767.9 547.29 771.31 543.25 767.94 544.15 765.35 545.57 766.87 548.45 767.9 Z M 540.38 750.03 539.76 748.43 540.22 746.28 542.48 745.96 542.69 749.5 540.38 750.03 Z M 623.49 693.05 621.57 694.57 619.09 693.17 621.23 691.96 623.49 693.05 Z M 606.75 689.76 606.69 692.46 604.94 693.96 602.51 692.83 602.48 691 604 688.7 606.75 689.76 Z M 526.44 732.23 525.47 732.81 524.27 730.22 522.72 729.32 521.09 727.14 520.83 725.57 524 724.45 525.67 726.15 524.07 727.48 525.44 729.34 526.44 732.23 Z M 619.52 704.57 620.56 704.97 619.37 708.87 615.2 708.54 614.05 705.57 617.32 704.59 619.52 704.57 Z M 612.58 733.49 610.82 734.94 610.59 732.35 612.58 733.49 Z M 631.6 720.74 631.53 719.14 634.48 717.96 636.56 716.56 636.34 715.31 639.8 714.56 640.6 716.76 643.85 718.65 645.65 720.98 644.36 722.92 642.4 723.57 637.74 723.29 637.31 719.4 635.85 722.15 632.55 721.6 631.6 720.74 Z M 542.68 757.9 545.59 760.51 544.35 762.18 542.32 761.23 541.51 762.02 537.12 760.1 538.26 756.19 540.18 756.52 540.54 753.32 542.68 757.9 Z M 526.96 727.08 530.64 727.82 532.13 725.83 531.49 724.1 533.61 723.31 531.94 721.22 533.54 717.65 536.07 717.22 537.27 716.27 537.58 712.13 539.46 707.4 540.75 707.49 542.31 704.96 542.29 702.65 540.38 700.48 540.5 698.52 546.74 697.2 547.91 696.04 551.09 696.53 552.68 694.86 553.94 694.79 556.24 690.16 558.19 688.8 559.24 689.33 561 688.14 565.25 688.53 569.67 687.04 569.62 683.77 570.38 682.47 572.43 682.15 576.61 681.87 578.23 679.7 580.69 679.2 583.59 679.32 588.62 676.25 591.29 675.77 593.11 674.3 597.6 673.06 598.68 672.05 600.36 674.55 604.34 674.88 605.72 674.42 609.64 675.13 612.78 676.79 616.72 674.98 617.36 674.02 619.62 673.98 621.65 672.52 623.01 673.09 626.72 671.09 627.41 669.14 626.76 667 624.14 663.53 626.82 661.81 628.79 662.24 633.44 664.07 635.45 669.11 633.93 669.58 632.16 672 630.7 672.78 632.59 677.41 632.63 678.96 631.15 680.32 629.4 684.77 625.63 683.1 619.05 684.09 614.63 683.1 614.17 683.78 609.96 682.79 609.38 684.4 607.8 685.22 606.53 687.04 603.54 687.51 602.11 685.62 599.54 686.26 598.04 688.09 598.72 689.09 595.16 692.18 593.02 692.48 590.56 691.8 588.56 692.85 588.09 694.25 590.24 696.35 592.2 700.05 597.83 700.44 602.03 703.65 600.79 705.08 597.94 702.19 592.02 701.03 589.58 702.96 591.45 705.09 595.47 706.3 596.35 708.52 594.83 709.77 589.61 705.08 585.27 704.44 583.75 705.9 587.19 709.6 590.39 710.33 589.68 711.91 585.3 710.86 583.6 708.8 583.01 705.86 577.99 704.65 575.24 702.97 573.77 701.28 576.38 699.66 575.25 698.04 572.44 699.98 572.46 701.02 569.68 702.76 571.45 704.76 570.27 709.66 570.98 712.14 573.69 713.84 574.35 715.49 576.78 717.28 579.08 721.75 582.13 723.05 585.83 726.55 587.56 729.27 585.39 729.95 583.52 727.56 581.43 727.44 578.4 728.64 579.05 731.52 581.91 733.1 582.26 735.51 578.93 738.06 579.02 740.27 583.83 740.26 585.32 742.51 586.62 741.18 588.86 741.56 590.63 743.97 594.76 744.65 595.41 745.92 597.21 747.39 601.68 747.63 604.22 749.35 602.99 751.29 604.2 753.73 604.26 756.42 606.02 758.56 605.53 761.75 603.94 761.45 602.7 759.25 600.41 759.2 598.43 756.38 593.7 755.33 593.13 756.53 589.86 757.12 587.69 758.95 589.63 760.97 589.75 763.9 590.42 765.48 593.39 766.64 593.99 766.06 597.07 767.74 595.72 769.03 592.52 769.91 590.64 772.35 589.24 771.54 589.98 769.25 587.64 769.4 586.13 767.9 584.72 768.62 583.07 767 582.26 768.42 583.37 771.54 586.77 775.69 586.95 777.34 589.01 779.02 589.55 781.11 591.97 784.34 590.64 785.85 590.98 787.56 593.28 790.44 590.26 790.66 588.09 788.48 585.94 785.09 584.03 785.04 582.13 785.96 581.32 789.76 581.24 793.74 578.92 792.74 579.4 791.65 578.38 788.45 575.24 784.45 573.65 784.25 573.59 781.86 571.63 781.85 569.84 783.1 569.86 786.09 570.51 787.68 569.57 789.29 568.21 787.61 566.07 787.72 565.73 784.9 563.39 782.89 562.47 780.48 564.17 777.28 563.87 775.13 560.91 771.38 557.94 769.66 556.01 769.56 555.42 767.05 552.13 766.19 552.2 763.81 553.54 763.62 555.89 759.23 555.72 756.96 560.38 757.78 562.49 754.19 563.88 752.93 565.8 752.73 568.86 753.84 571 755.33 573.06 755.21 579.71 756.71 583.5 759.01 585.31 757.78 584.37 755.53 586.85 755.65 588.51 754.9 588.95 752.95 587.16 752.16 583.38 753.17 581.41 752.71 581.1 751.49 579.15 751.01 578 749.51 576.83 751.94 574.71 749.34 573.43 751.36 568.86 751.41 565.6 751.03 561.44 752.93 559.37 753.4 558.07 754.88 555.94 752.93 554.51 753.11 551.53 755.67 550.11 751.78 548.67 751.3 548.27 749.12 546.07 747.65 545.02 745.29 542.42 745.47 542.6 743.06 547.36 741.78 548.59 743.17 549.52 739.96 548 738.68 546.68 739.97 542.88 738.3 542.05 740.55 536.75 736.54 536.65 735.23 533.79 735.14 532.37 732.03 530.64 730.28 530.36 728.21 526.96 727.08 Z M 659.3 748.87 655.21 751.73 652.06 748.97 654.61 747.89 659.3 748.87 Z M 647.24 752.52 645.38 755.61 642.5 757.44 640.97 757.08 642.29 754.72 644.52 754.37 647.24 752.52 Z M 624.87 759.62 623.8 757.59 627.47 758.12 627.31 760.28 624.87 759.62 Z M 622.34 755.81 622.05 757.77 616.16 753.2 617.6 751.34 619.18 753.02 621.11 752.84 622.34 755.81 Z M 639.99 734.08 640.09 736.95 641.03 739.47 640.46 741.46 638.05 743.16 636.4 741.73 637.49 740.22 637.6 738.41 635.14 736.5 634.26 734.42 636.75 733.34 639.99 734.08 Z M 598.21 745.76 595.87 746.03 595.05 744.9 594.69 742.71 592.6 742.17 591.26 740.57 585.26 737.6 579.81 738.45 583.08 736.22 584.43 734.15 587.33 732.79 589.89 734.38 591.29 736.83 596.57 738.63 600.21 739.11 602.39 738.48 603.65 740.12 605.81 741.48 605.42 744.22 607.06 746.59 607.3 748.04 611.67 749.28 613.56 748.44 613.85 752.36 610.42 753.39 606.8 749.57 605.33 747.17 602.89 744.84 598.21 745.76 Z" id="Greece" data-med_age="45.3" data-d_per_mil="2004.677"/>
<path d="M 442.37 803.88 440.14 803.38 438.29 804.21 434.51 802.57 432.73 802.4 430.83 799.06 427.23 796.16 425.68 795.53 421.4 796.02 418.03 794.58 415.22 792.38 413.05 791.91 409.75 789.89 407.75 787.85 405.03 787.82 402.53 786.09 398.23 786.43 396.67 784.51 395.02 783.86 393.8 781.02 394.86 776.15 397.89 773.89 399.03 773.63 402.31 775.74 405.34 774.18 405.83 771.9 407.77 772.14 409.75 771.04 411.19 773.66 413.41 773.39 414.27 774.75 417.04 776.19 419 776.15 422.72 774.33 423.89 774.85 428.42 774.73 433.88 772.96 435.59 771.12 438.7 770.24 442.07 771.37 444.81 769.16 447.6 768.61 449.84 766.85 452.11 767.31 449.64 771.84 444.76 779.88 444.23 784.02 443.1 785.77 443.59 789.68 446.28 790.96 445.08 792.18 447.66 796.33 445.28 798.18 443.98 801.56 444.9 804.33 442.37 803.88 Z M 324.27 755.39 323.39 753.06 322.4 752.89 320.1 749.22 321.2 747.42 320.2 745.64 320.47 743.57 321.88 741.16 323.56 735.63 322.57 733.52 320.8 733.47 321.07 730.98 322.57 729.13 322.4 724.84 320.84 723.45 320.78 720.78 319.29 717.85 316.99 718.52 316.59 714.74 318.42 710.64 319.18 711.68 323.06 712.7 325.54 711.1 328.53 710.14 331.98 706.05 334.36 705.37 335.93 702.88 339.6 705.87 341.76 706.2 341.02 708.22 341.82 710.41 343.42 712.17 345.03 718.19 346.26 719.92 345.11 722.86 342.86 725.32 343.2 728.47 344.57 729.86 343.76 732.66 342.85 744.26 341.52 751.17 339.3 751.72 336.61 749.49 334.33 750.25 332.79 749.37 331.67 751.15 332.12 753.32 328.62 757.22 324.27 755.39 Z M 356.82 666.72 355.04 668.58 351.81 669.22 351.57 667.51 355.2 667.64 356.82 666.72 Z M 307.68 644.38 307.33 642.68 309.96 639.83 310.97 637.64 309.29 635.98 305.08 636.65 300.46 633.84 299.42 633.77 297.61 630.7 298.52 629.27 297.26 626.97 299.14 624.95 300.16 621.13 299.14 619.53 297.74 619.53 295.86 617.86 295.87 615.91 293.99 613.76 296.22 612.62 297.94 613.32 299.88 611.58 301.57 611.44 303.33 607.1 300.54 604.69 300.34 601.7 298.02 600.32 297.89 597.34 300.3 596.72 301.53 595.22 303.6 596.42 307.49 595.66 309.9 594.17 312.51 595.6 314.5 595.92 317.03 594.04 317.72 591.95 319.1 591.16 318.58 588.24 322.12 585.47 322.55 584.21 324.54 584.22 324.17 587.87 326.96 591.43 330.65 592.79 329.56 594.68 331.2 595.54 331.77 598.27 333.27 598.47 334.27 596.68 332.96 595.17 334.77 591.2 336.94 589.09 337.77 586.8 337.2 584.38 337.92 582.99 340.33 582.99 340.47 585.82 341.92 587.59 344.12 587.75 348.01 585.94 349.99 589.4 351.85 588.44 350.77 586.91 351.43 584.96 349.73 584.22 350.7 580.59 356.07 582.16 356.59 580.13 355.16 579.02 356.47 574.6 359.52 574.6 360.73 576.36 365.06 576.71 366.52 573.4 367.8 572.2 372.46 571.12 376.61 571.87 379.17 570.5 382.81 569.22 382.82 573.13 385.05 573.99 385.14 575.82 387.36 578.01 389.64 578.8 392.83 578.95 394.15 579.62 399.18 579.98 400.55 580.68 404.45 580.24 408.03 581.07 403.97 585.08 402.94 586.59 403.92 587.96 407.46 589.1 404.77 593.02 407.39 593.82 406.64 596.19 407.01 597.51 410.13 598.8 411.52 600.89 411.42 602.38 409.22 602.3 409.81 600.45 406.94 597.96 404.42 599.52 401.04 598.42 398.68 601.78 396.8 602.04 394.23 603.86 388.55 606.71 387.32 605.22 386.09 606.2 384.54 610.87 387.24 614.49 389.9 617.26 390 619.87 388.22 621.54 386.82 620.41 386.16 623.45 387.57 631.44 388.78 634.45 393.5 639.33 398.02 641.29 402.3 644.88 406.12 647.37 408.07 647.37 409.8 648.92 410.42 650.84 414.33 660 415.39 663.75 417.24 668.3 418.61 670.51 421.88 673.83 424.19 675.38 427.32 678.57 429.94 679.56 430.38 681.28 432.9 682.66 435.03 683.01 437.71 684.65 442.94 684.84 445.74 684.15 448.55 684.09 452.84 683.23 455.54 684.18 455.82 686.76 451.21 690.92 451.28 692.71 452.72 694.49 463 698.65 463.91 699.22 472.19 701.34 476.2 703.3 479.98 706.37 484.89 707.77 486.68 708.82 489.62 709.51 490.36 711.58 494.09 713.46 498.01 717.39 499.7 720.16 498.23 724.01 498.21 727.73 495.01 727.57 492.39 726.2 490.86 724.44 490.91 722.12 487.62 718.01 481.7 718.29 476.24 716.47 476.75 715.25 475.03 714.15 471.92 714.89 468.89 719.55 468.16 721.93 466.15 724.77 466.84 727.42 464.66 731.3 465.29 733.9 467.34 735.19 470.17 735.25 471.41 736.49 477.25 739.31 476.71 742.19 477.4 743.78 477.25 746.54 478.36 749.42 477.26 750.93 474.98 750.27 470.54 752.01 467.95 754.38 467.39 756.38 468.45 760.21 468.36 762.78 464.55 765.75 461.72 769.58 460.38 774.34 454.64 775.12 452.21 773.38 452.14 768.09 455 766.51 456.51 761.71 455 758.29 457.75 756.59 460.16 756.43 461.41 754.35 461.25 751.88 458.91 749.06 457.3 742.44 456.46 740.37 453.98 737.7 452.68 734.78 451.81 730.37 448.86 726.32 447.28 726.44 445.2 728.51 444 728.36 439.95 724.85 438.54 724.96 436.04 723.46 436.29 721.34 437.36 719.81 435.2 715.93 432.66 713.72 429.57 715.26 426.32 715.01 427.73 712.81 424.45 710.5 422.9 711.45 420.76 710.88 416.38 703.87 413.78 701.51 411.8 701.68 410.97 702.78 407.07 700.94 404.7 701.43 402.68 702.8 400.05 699.29 398.95 698.56 394.99 697.92 391.62 693.85 387.67 691.22 386.26 687.77 382.53 684.94 380.69 684.93 377.67 679.39 375.6 677.84 372.81 676.57 369.17 675.87 369.53 674.01 365.33 668.99 361.71 667.62 362.48 665.55 361.24 664.5 357.76 664.54 358.53 659.81 358.2 657.53 356.65 654.29 354.78 652.28 354.22 649.94 353.67 644.51 352.81 642.13 351.07 639.92 346.32 638.85 343.03 636.9 340.78 634.69 336.61 632.14 328.91 630.24 323.97 633.08 322.73 635.85 320.42 637.03 318.86 640.93 315.34 643.22 311.59 644.36 307.68 644.38 Z" id="Italy" data-med_age="47.9" data-d_per_mil="2276.093"/>
<path d="M 188.27 473.99 186.65 476.3 184.98 476.53 182.3 474.08 185.08 472.12 188.27 473.99 Z M 156.52 407.7 156.26 409.04 154.81 409.46 154.28 410.25 152.25 411.07 150.58 409.56 150 407.19 150.54 404.54 152.66 404.17 154.53 405.15 155.06 407.67 156.52 407.7 Z M 142.7 345.26 142.91 348.85 140.38 349.48 139.28 347.22 137.07 346.52 138.48 343.87 139.81 344.25 142.8 342.68 142.7 345.26 Z M 154.12 355.4 152.57 356.82 150.49 355.24 150.48 352.13 152.3 349.96 153.88 351.91 154.12 355.4 Z M 147.99 339.8 148.52 340.77 144.33 346.26 143.09 345.86 143.49 343.43 146.11 340.72 147.99 339.8 Z M 145.85 289.58 148.83 287.22 150.85 287.01 155.03 284.6 155.73 286.71 155.31 288.59 153.11 289.93 151.18 293.3 151.46 294.98 148.32 297.17 144.43 298.67 142.38 300.06 141.57 297.98 143.42 296.48 142.78 290.87 144.6 288.45 145.85 289.58 Z M 196.26 281.55 198.13 282.3 198.75 283.76 197.16 284.67 195.66 282.55 192.87 283.07 191.41 280.44 192.41 278.02 195.19 278.53 196.26 281.55 Z M 218.36 263.65 220.19 259.81 219.78 257.66 218.17 258.52 216.49 256.82 216.02 255.16 220.18 254.38 219.42 252.32 219.39 249.78 222.17 251.2 223.46 253.77 222.75 256.54 220.96 259.6 220.4 262.84 218.36 263.65 Z M 225.51 247.08 224.37 251.43 222.85 250.55 223.26 247.92 225.51 247.08 Z M 137.59 327.3 136.3 329.21 135.29 327.56 137.59 327.3 Z M 146.47 317.05 147.21 318.37 145.64 319.62 144.59 317.9 146.47 317.05 Z M 136.83 308.39 135.49 312.29 133.94 312.35 133.77 309.75 135.99 306.22 136.83 308.39 Z M 151.4 305.61 150.38 310.88 152.61 314.1 154.4 313.69 155.21 315.59 150.87 318.64 151.48 316.07 150.87 314.82 147.11 314.77 145.94 310.92 146.5 308.93 143.49 308.8 144.24 305.71 148.07 306.46 148.51 303.89 150.13 302.63 151.4 305.61 Z M 147.21 331.18 143.72 328.6 144.04 327.21 147.51 327.2 148.09 330.04 150.12 330.72 151.57 332.68 145.56 335.07 144.84 333.25 145.65 331.32 147.21 331.18 Z M 139.53 301.35 140.17 302.51 138.92 304.5 137.15 304.06 135.91 302.12 136.78 301.01 139.53 301.35 Z M 131.47 383.74 129.87 384.19 126.44 383.9 126.96 381.45 125.06 379.43 124.83 376.77 123.39 374.35 120.24 376.44 120.59 378.16 117.95 379.18 115.48 379.27 113.27 376.92 111.57 376.4 111.48 374.4 109.43 371.66 108.77 369.5 111.38 368.26 112.8 368.9 115.53 367.86 113.29 365.94 118.72 364.17 120.24 362.89 122.18 359.42 124.06 358.92 126.25 360.06 128.39 356.99 130.95 358.01 134.59 357.22 140.06 360.36 139.25 362.4 140.3 363.36 141.33 367.58 142.45 368.64 141.76 371.14 143.61 372.88 144.42 377.48 143.21 380.21 140.2 382.59 137.5 381.97 136.44 384.71 134.16 385.81 131.47 383.74 Z M 209.45 406.69 210.41 409.36 214.66 413.53 215.66 415.64 216.47 419.58 215.87 422.74 213.31 424.2 211.1 426.14 212.99 427.57 213.83 429.23 215.64 429.58 217.54 426.52 220.44 425.67 224.27 426.44 228.4 427.99 229.96 429.06 233.43 432.61 234.11 435.71 234.08 438.93 231.55 443.64 230.37 447.88 228.76 448.27 225.63 452.44 223.74 453.84 220.9 452.94 220.19 457.42 216.33 460.33 213.95 461.38 216.8 462.85 219.8 463.58 221.63 463.25 226.29 463.37 225.45 464.8 225.68 467.25 224.63 469.23 220.28 470.25 218.61 471.93 218.09 473.57 216.12 472.63 213.32 474.14 209.47 474.56 207.9 476.01 201.24 473.17 195.96 473.07 192.54 474.24 189.61 471.15 187.7 472.32 185.2 470.89 181.43 472.78 179.87 472.04 175.8 472 175.16 474.49 169.09 472.45 167.65 473.5 165.04 470.65 162.74 469.28 156.84 469.6 154.34 470.19 152.62 472.72 152.48 474.95 149.98 476.81 149.42 478.73 147.29 478.64 145.42 475.78 143.97 476.03 142.27 474.29 140.07 473.52 137.61 474.02 133.75 473.86 128.88 476.56 128.3 478.41 125.26 479.36 124.82 477.21 122.6 475.55 120.98 476.87 118.91 476.6 119.73 474.2 122.5 473.43 123.43 474.23 128.31 471.59 130.1 470.12 131.11 467.75 132.7 466.88 134.56 467.12 135.48 465.55 138.99 462.98 140.26 458.41 142.85 459.36 145.04 457.92 145.27 455.24 151.74 455.22 156.58 457.01 157.18 457.67 162.36 457.82 163.3 455.61 166.68 452.46 168.56 451.65 168.3 450.31 164.52 450.19 159.35 453.43 155.89 452.45 153.47 448.83 152.6 446.59 150.45 446.53 147.2 447.48 145.99 446.76 146.21 444.02 145.42 441.89 141.94 441.85 140.54 443.52 138.4 443.22 137.1 444.07 135.78 443.07 136.65 441.38 135.6 439.46 135.75 437.67 133.62 435.92 136.32 435.36 137.33 433.98 140.44 434.91 142.57 433.03 145.7 433.08 150.55 430.74 152.43 428.55 153.71 425.17 152.99 423.59 154.56 421.13 153.6 418.82 154.21 417.12 153 416.18 150.46 416.29 148.49 418.32 145.71 416.79 148.05 414.96 151.74 413.35 152.58 411.8 155.03 409.56 160.03 408.86 163.12 409.46 166.65 408.67 169.95 410.78 169.18 408.16 171.08 407.53 171.1 404.32 173.7 401.57 172.6 399.96 173.07 396.84 175.87 395.65 175.45 394.27 177.45 392.51 174.09 391.04 171.49 391.72 170 387.56 170.2 386.07 168.04 381.67 170.59 377.25 171.68 376.53 172.88 373.89 174.58 372.8 171 370.9 170.36 373.41 167.31 373.23 166.95 374.13 164.25 374.93 162.83 374.54 160.21 371.83 159.57 375.55 157.63 375.19 156.68 373.24 153.71 370.48 152.18 371.6 150.14 370.13 149.85 368.52 151.57 367.2 153.12 363.87 155.32 362.42 156.19 360.18 157.75 358.42 159.58 357.51 159.39 354.25 157 351.31 157.99 350.38 158.72 345.04 156.85 347.47 154.94 345.51 152.86 346.84 153.15 343.69 151.48 344.29 152.34 348.55 149.47 351.19 148.39 354.74 147.17 355.82 147.58 357.54 146.15 358.45 144.13 358.13 144.39 355.88 145.6 354.99 146.12 352.34 148.89 348.39 148.09 347.28 148.24 344.51 151.97 338.9 151.26 337.28 151.9 335.58 153.91 333.36 154.97 331.14 155.22 328.87 151.51 331.5 148.07 327.84 149.68 326.87 145.74 324.93 146.61 324.29 150.38 324.43 152.8 322.39 151.18 321.37 153.25 318.2 157.09 314.44 155.01 313.66 154.33 311.84 154.27 308.54 156.33 305.69 156.79 301.08 160.12 300.54 161.16 301.57 163.74 299.14 162.67 297.21 164.47 296.8 164.31 294.51 165.06 293.28 167.16 293.02 167.72 289.76 169.01 289.12 170.62 285.34 172.99 286.35 174.11 287.79 176.33 288.02 176.7 289.07 181.9 289.04 183.15 289.41 186.94 288.71 189.57 289.83 191.73 288.82 193.81 289.7 191.95 292.35 192.65 293.58 189.96 296.83 187.82 297.38 185.83 299.26 179.19 302.85 178.54 304.89 179.4 306.48 177.36 309.65 176.78 311.85 178.94 311.55 184.06 309.61 186.6 309.92 188.87 311.54 190.98 311.15 194.07 311.83 196.69 312.99 200.78 312.83 202.82 313.71 203.8 315.48 204.1 318.8 200.79 321.85 198.98 325.4 199.15 326.26 196.91 329.01 196.05 331.48 192.83 334.01 191.23 337.22 186.95 340.28 186.6 342.15 189.16 344.19 186.2 345.67 183.98 344.95 181.57 346.44 180.86 347.69 178.44 348.1 174.39 346.77 174.4 347.73 180.98 349.93 183.28 350.36 185.42 348.51 187.51 349.04 190.56 352.05 193.24 353.4 196.24 360.49 198.44 361.97 198.64 364.37 198.09 369.04 198.28 371.93 199.44 377.72 199.77 380.97 201.74 384.9 205.79 387.09 208.68 389.77 209.86 394.4 211.38 396.77 213.63 398.59 211.41 400.36 211.93 403.3 214.94 409.69 211.85 409.53 209.45 406.69 Z" id="United Kingdom" data-med_age="40.8" data-d_per_mil="2180.667"/>
<path d="M 509.35 290.26 507.69 291.62 505.45 290.45 506.74 288.4 508.42 288.72 509.35 290.26 Z M 561.95 303.55 558.62 303.85 555.63 302.73 555.03 304.2 552.73 306.02 548.37 304.61 544.69 301.82 544.21 300.31 541.49 300.62 540.39 299.28 538.92 299.87 536.25 298.19 533.95 299.23 532.08 297.7 530.66 299.44 528.16 300.31 526 301.87 524.55 304.19 523.64 304.17 524.55 299.18 523.77 295.13 524.32 293.07 522.8 292.15 521.31 292.6 520.93 295.02 519.33 296.18 517.63 294.79 514.68 294.79 513.11 290.85 510.85 289.42 510.19 287.36 512.28 285.68 509.03 283.65 507.83 279.38 508.5 277.64 507.54 275.78 510.52 273.52 514.43 272.48 513.72 270.25 516.2 269.19 517.25 267.6 519.97 268 525.2 264.46 528.46 264.88 529.05 262.87 534 261.18 537.85 260.46 540.58 260.94 541.94 260.18 546.08 261.74 551.42 260.38 556.95 260.02 558.15 257.94 560.69 259.82 559.87 261.7 558.54 262.02 557.5 270.14 555.59 273.05 555.52 275.94 559.3 283.55 559.19 286.59 561.98 290.18 563.39 293.88 565.32 294.75 562.72 296.56 562.71 298.9 561.48 300.17 561.95 303.55 Z M 496.28 308.19 495.39 306.73 496.05 304.32 495.51 302.23 494.3 300.83 492.71 300.63 493.55 298.39 492.18 295.27 494.63 295.1 495.47 293.59 498.45 291.96 500.66 291.71 502.43 290.54 505.96 291.11 507.15 293.08 506.68 295.1 505.44 296.15 503.42 299.28 500.72 299.49 498.39 301.01 497.82 306.08 496.28 308.19 Z M 501.43 285.87 500.25 289.07 499.15 289.64 497.13 286.39 495.56 285.37 494.07 285.83 492.61 284.49 496.86 283.4 497.82 280.52 499.92 282.06 502.31 282.11 503.98 285.43 501.43 285.87 Z" id="Estonia" data-med_age="42.7" data-d_per_mil="1457.906"/>
<path d="M 491 352.06 489.28 347.96 488.81 345.02 489.59 342.45 488.5 341.34 488.79 338.8 488.33 334.44 490.07 332.73 491.67 330.12 491.09 323.68 493.77 316.59 496.94 315.43 503.41 310.58 503.82 312.72 504.99 314.37 510.38 317.87 511.68 318.18 514.47 324.03 520.4 325.99 523.07 324.55 526.01 321.2 527.69 317.7 525.79 311.21 525.26 308.45 524.16 306.99 523.64 304.17 524.55 304.19 526 301.87 528.16 300.31 530.66 299.44 532.08 297.7 533.95 299.23 536.25 298.19 538.92 299.87 540.39 299.28 541.49 300.62 544.21 300.31 544.69 301.82 548.37 304.61 552.73 306.02 555.03 304.2 555.63 302.73 558.62 303.85 561.95 303.55 564.04 303 564.4 305.25 568.94 307.08 569.75 310.35 569.34 312.63 569.61 315.2 570.98 316.9 572.98 317.95 572.7 319.53 574.44 320.41 575.39 322.54 578.27 325.62 579.81 328.96 579.72 332.04 577.17 333.49 574.75 338.55 574.83 341.6 571.58 341.53 570.74 342.78 569.09 342.11 566.97 342.78 565.66 345.94 563 347.51 558.62 346.72 556.79 344.63 549.5 340.64 548.63 339.51 544.79 339.98 541.15 339.87 538.01 335.25 535.34 336.86 533.01 340.09 531.22 339.56 529.18 340.94 526.94 340.1 523.31 339.82 520.6 340.91 517.99 340.4 514.8 342.15 513.27 340.36 510.29 342.37 509.03 341.71 504.46 342.43 502.83 342.08 498.7 344.96 496.99 345.61 493.14 349.1 492.7 351.52 491 352.06 Z" id="Latvia" data-med_age="43.9" data-d_per_mil="2447.864"/>
<path d="M 531.12 395.03 529.98 390.66 527.9 388.9 522.32 386.29 520.59 386.15 519.84 387.33 518.3 385.34 517.78 379.11 518.96 377.6 518.36 375.2 515.62 374 514.38 371.73 510.45 372.29 507.4 373.4 503.48 372.1 501.34 370.94 500.02 371.11 497.99 369.21 496.88 369.22 495.18 364.28 493.63 360.84 492.46 359.47 491.61 356.6 491 352.06 492.7 351.52 493.14 349.1 496.99 345.61 498.7 344.96 502.83 342.08 504.46 342.43 509.03 341.71 510.29 342.37 513.27 340.36 514.8 342.15 517.99 340.4 520.6 340.91 523.31 339.82 526.94 340.1 529.18 340.94 531.22 339.56 533.01 340.09 535.34 336.86 538.01 335.25 541.15 339.87 544.79 339.98 548.63 339.51 549.5 340.64 556.79 344.63 558.62 346.72 563 347.51 563.55 349.73 563.02 351.08 562.88 355.35 567.19 355.22 566.1 357.79 566.03 359.75 561.62 360.32 561.56 362.36 560.5 364.92 557.61 366 556.53 370 557.82 374.72 556.7 376.39 556.89 378.39 556.19 380.33 558.49 380.42 560.14 382.06 560.2 383.93 557.02 384.91 557.08 382.85 555.5 381.6 554.58 383 552.39 383.27 551.23 386.45 548.26 386.78 547.61 388.14 548.48 390.73 546.55 390.7 543.21 393.9 541.58 394.06 540.12 392.82 536.86 393.73 533.18 395.6 531.12 395.03 Z" id="Lithuania" data-med_age="43.5" data-d_per_mil="2746.238"/>
<path d="M 530.59 676.27 533.14 676.23 533.66 671 536.72 669.34 538.62 667.64 541.13 669.4 542.98 666.42 546.33 665.3 548.27 665.26 552.19 662.32 554.26 662.74 557.79 660.59 559.27 661.67 562.57 664.94 564.85 666.17 568.8 667.17 569.91 670.13 571.36 672.26 572.53 672.74 571.71 675.52 572.73 679.85 572.43 682.15 570.38 682.47 569.62 683.77 569.67 687.04 565.25 688.53 561 688.14 559.24 689.33 558.19 688.8 556.24 690.16 553.94 694.79 552.68 694.86 551.09 696.53 547.91 696.04 546.74 697.2 540.5 698.52 539.88 697.27 536.01 697.69 534.44 694.17 533.06 693.94 530.69 689.01 531.5 687.01 529.44 683.91 530.88 682.84 529.86 679.59 530.59 676.27 Z" id="Macedonia" data-med_age="39.1" data-d_per_mil="3822.033"/>
<path d="M 526.96 727.08 526.67 723.15 523.6 719.41 516.99 716.83 514.26 714.53 515.99 713.41 515.87 711.33 514.83 708.38 512.23 706.87 513.05 705.45 512.96 703.33 515.33 700.3 513.79 698.45 513.68 694.36 514.3 692.6 512.47 691.4 512.53 688.66 514.74 683.81 514.11 679.74 511.26 678.96 510.15 679.47 509.54 677.03 509.56 673.68 507.85 671.78 509.65 667.49 512.12 663.52 513.02 661.05 514.06 660.65 514.98 664.06 516.36 664.45 520.12 662.14 521.75 663.15 523.69 666.9 525.31 666.72 527.92 668.23 529.28 670.05 530.87 674.21 530.59 676.27 529.86 679.59 530.88 682.84 529.44 683.91 531.5 687.01 530.69 689.01 533.06 693.94 534.44 694.17 536.01 697.69 539.88 697.27 540.5 698.52 540.38 700.48 542.29 702.65 542.31 704.96 540.75 707.49 539.46 707.4 537.58 712.13 537.27 716.27 536.07 717.22 533.54 717.65 531.94 721.22 533.61 723.31 531.49 724.1 532.13 725.83 530.64 727.82 526.96 727.08 Z" id="Albania" data-med_age="38" data-d_per_mil="1119.761"/>
<path d="M 124.06 358.92 122.18 359.42 120.24 362.89 118.72 364.17 113.29 365.94 115.53 367.86 112.8 368.9 111.38 368.26 108.77 369.5 109.43 371.66 111.48 374.4 111.57 376.4 113.27 376.92 115.48 379.27 117.95 379.18 120.59 378.16 120.24 376.44 123.39 374.35 124.83 376.77 125.06 379.43 126.96 381.45 126.44 383.9 129.87 384.19 131.47 383.74 133.17 386.12 132.26 386.85 129.95 385.62 129.07 387.89 130.61 389.05 129.7 393.79 131.2 396.54 129.76 400.05 128.35 400.55 129.56 402.54 129.56 406.67 128.76 408.9 129.28 410.24 126.71 413.01 124.79 416.12 124.26 418.84 119.7 423.33 121.2 425.37 117.29 425.95 115.63 424.65 112.15 424.71 111.08 425.42 105.29 424.32 103.28 424.82 102.43 426.81 98.94 426.84 95.59 429.08 91.84 428.62 90.55 430.15 88.4 430.21 87.45 431.16 85.27 431 76.53 431.59 74.97 430.27 71.32 429.88 73.39 428.27 72.73 426.31 69.17 426.01 68.7 423.69 66.12 423.1 65.47 420.27 65.91 417.09 70.99 416.75 71.09 414.8 67.76 414.71 66.68 413.75 64.01 413.78 65.04 411.83 67.56 410.83 68.82 412 73.57 412.78 74.18 410.15 77.89 406.5 83.49 407.78 87.63 407.21 87.35 404.86 84.95 407.17 82.29 407.07 79.6 405.32 75.69 405.29 81.43 401.9 84.06 399.5 84.08 397.7 86.46 395.05 90.84 395.45 91.52 393.67 85.37 392.32 83.79 392.35 81.27 389.58 79.31 388.7 77.99 386.94 77.34 382.95 80.6 382.53 81.92 379 86.01 378.83 87.24 377.21 82.21 376.27 83.72 373.19 84.19 371.08 83.5 368.48 88.05 367.39 92.86 368.71 95.44 371.62 96.33 370.36 98.69 371.63 102.21 372.08 101.65 370.3 106.05 368.67 110 366.42 106.6 364.68 103.21 364.31 102.04 362.26 106.93 359.73 108.79 356.62 111.46 353.55 112.8 354.76 115.65 353.17 118.1 352.98 123.26 353.54 124.34 352.11 126.09 352.86 126.77 354.43 128.77 356.52 125.42 357.49 124.06 358.92 Z" id="Ireland" data-med_age="38.7" data-d_per_mil="1186.457"/>
<path d="M 342.73 570.19 343.18 568.69 341.82 565.46 343.84 562.1 342.27 559.22 344.28 559.51 345.92 558 346.72 559.24 348.47 559.1 350.43 561.43 350.61 563.27 352.58 562.96 354.1 564.57 356 562.4 356.02 559.05 358.4 558.57 362.58 560.12 366.23 562.45 368.62 562.31 371.32 559.69 373.47 559.47 374.51 557.7 377.63 557.96 379.4 557.1 383.1 557.13 384.06 555.4 386.68 554.98 387.88 556.32 390.5 555.28 392.19 555.4 392.55 557.97 395.17 559.8 396.62 559.22 397.01 555.38 396.15 554.19 394.16 554.03 395.59 551.13 394.59 549.38 391.68 546.05 391.55 545 393.3 543.19 395.85 541.55 399.51 540.39 401.45 538.7 402.12 535.46 402.98 533.85 406.04 535.14 407.24 533.01 407.27 529.45 409.87 530.69 411.41 533.25 415.27 533.79 417.18 531.73 420.8 532.81 420.87 530.81 422.18 528.35 424.32 528.52 424.59 522.86 429.03 523.03 431.75 523.8 435.73 525.57 437.44 525.04 441.71 527.68 445.87 527.68 447.16 525.84 449.78 526.04 450.65 527.11 453.68 527.17 455.01 529.7 455.2 531.05 454.1 533.15 453.98 535.3 455.85 537.26 456.51 539.78 459.39 543.1 458.42 546.05 457.48 546.57 458.91 550 454.69 551.16 450.98 549.68 448.69 552.02 452.21 552.62 453.29 554.46 452.71 556.48 449.56 559.24 450.53 565.23 450.1 567.39 447.87 567.24 445.3 570.72 443.45 571.84 443.61 574.73 441.72 574.19 438.34 574.61 435.78 577.18 434.55 576.55 429.77 576.84 426.12 578.16 425.39 580.09 422.24 582.24 415.21 582.52 413.87 581.66 408.03 581.07 404.45 580.24 400.55 580.68 399.18 579.98 394.15 579.62 392.83 578.95 389.64 578.8 387.36 578.01 385.14 575.82 385.05 573.99 382.82 573.13 382.81 569.22 379.17 570.5 376.61 571.87 372.46 571.12 367.8 572.2 366.52 573.4 365.06 576.71 360.73 576.36 359.52 574.6 356.47 574.6 356.53 572.95 355.19 571.59 353.97 573.28 351.29 575.03 347.35 573.18 347.08 571.16 342.73 570.19 Z" id="Austria" data-med_age="44.4" data-d_per_mil="1518.621"/>
<path d="M 407.36 604.79 409.22 602.3 411.42 602.38 411.52 600.89 410.13 598.8 407.01 597.51 406.64 596.19 407.39 593.82 404.77 593.02 407.46 589.1 403.92 587.96 402.94 586.59 403.97 585.08 408.03 581.07 413.87 581.66 415.21 582.52 422.24 582.24 425.39 580.09 426.12 578.16 429.77 576.84 434.55 576.55 435.78 577.18 438.34 574.61 441.72 574.19 443.61 574.73 443.45 571.84 445.3 570.72 448.09 570.46 450.1 575.53 452.61 578.42 449.77 577.69 448.2 579.18 448.61 580.99 445.61 581.87 445.59 583.27 441 586.08 439.07 586.58 438.58 587.92 440.38 590.02 439.68 595.17 436.72 595.59 436.61 596.42 433.82 598.05 435.92 599.59 434.29 600.59 435.44 603.93 432.47 604.67 428.55 602.99 428.25 604.04 424.72 602.79 422.94 599.9 421.51 603.18 420.02 604.36 417.51 604.06 415.89 604.71 413.76 603.93 412.27 606.04 407.36 604.79 Z" id="Slovenia" data-med_age="44.5" data-d_per_mil="2688.67"/>
<path d="M 452.61 578.42 450.1 575.53 448.09 570.46 445.3 570.72 447.87 567.24 450.1 567.39 450.53 565.23 449.56 559.24 452.71 556.48 453.29 554.46 452.21 552.62 448.69 552.02 450.98 549.68 454.69 551.16 458.91 550 457.48 546.57 458.42 546.05 459.39 543.1 462.32 542.97 464.79 545.4 468.69 547.51 470.39 547.88 476.69 547.1 481.47 545.66 483.66 545.74 484.69 544.59 483.93 541.24 485.2 539.49 487.89 538.58 491.01 538.3 494.83 536.64 495.05 534.46 496.65 533.72 501.24 535.49 506.43 531.8 507.44 530.43 508.74 525.12 513.16 523.47 518.33 524.56 522.83 522.18 525.59 523.34 527.31 525.88 528.68 526.55 534.06 524.02 536.16 523.7 538.04 527.12 539.92 526.81 542.35 529.79 544.4 528.99 546.49 530.67 547.05 532.48 545.6 535.52 542.99 537.62 541.22 537.22 540.53 538.54 538.7 539.13 537.56 542.33 535.19 545.09 535.74 547.31 533.94 549.85 533.73 552.79 531.39 556.74 531.88 558.44 531.19 560.76 530.09 561.93 530.42 564.24 529.03 566.25 527.62 566.99 526.44 572.28 526.23 574.65 524.65 576.11 521.47 575.66 520 576.65 519.41 578.89 518.14 579.42 513.09 579.81 512.56 580.71 511.6 580.1 507.43 580.13 505.34 581.21 502.95 580.48 497.39 585.65 495.55 585.82 491.77 587.5 489.89 588.85 487.92 588.51 486.84 590.73 484.32 592.75 481.13 592.11 479.07 592.65 476.24 592.48 472.08 591.53 470.88 589.72 466.92 589.67 464.39 586.2 461.84 585.6 458.75 582.23 454.96 579.07 452.61 578.42 Z" id="Hungary" data-med_age="43.4" data-d_per_mil="4067.401"/>
<path d="M 546.33 665.3 545.21 663.26 546.77 661.98 546.59 660.55 547.91 657.98 547.93 655 546.03 655.47 544.8 654.55 541.78 654.58 541.78 652.2 539.16 651.55 537.96 649.2 536 647.51 531.23 646.15 529.8 644.27 527.24 646.09 528.59 647.94 527.69 650.45 525.8 651.65 526.13 654.17 524.02 655.12 523.97 653.65 519.98 652.29 516.23 649.55 513.44 650.04 510.89 649 506.2 644.6 503.02 643.37 502.86 641.59 505.17 639.54 507.54 640.35 507.73 638.33 506.66 635.81 502.51 631.94 507.55 630.58 508.5 629.25 503.86 626.25 502.74 624.47 499.88 624.01 499.17 622.4 499.18 619.27 501.84 613.95 502.27 610.92 501.06 609.93 496.41 611.58 497.27 608.9 496.16 605.33 501.7 603.85 500.99 602.16 497.66 601.73 494.49 597.75 496.15 596.67 492.76 594.6 493.53 593.36 491.17 590.25 491.77 587.5 495.55 585.82 497.39 585.65 502.95 580.48 505.34 581.21 507.43 580.13 511.6 580.1 512.56 580.71 514.72 583.46 518.18 584.78 520.96 588.17 522.27 587.58 522.24 590.99 523.68 594.1 526.47 596.5 531.21 598.39 533.98 598.66 535.4 599.53 534.83 604.13 537.12 605.38 534.49 606.36 535.46 608.07 538.17 607.81 539.74 609.66 542.92 608.9 545.31 609.44 547.61 612.53 548.72 612.45 550.26 608.19 552.02 606.59 554.93 608.05 557.08 608.3 557.15 610.18 555.12 609.98 553.77 612.27 555.41 614.97 557.72 615.59 558.16 617.31 556.97 618.77 557.15 621.31 554.25 623.44 554.09 627.79 555.43 630.37 556.57 631.06 558.06 634.88 563.31 637.37 564.98 639.37 566.78 640.06 566.62 641.93 563.8 647.29 560.01 648.6 558.93 650.02 560.11 651.76 559.71 655.56 561.92 657.87 560.55 661.16 559.27 661.67 557.79 660.59 554.26 662.74 552.19 662.32 548.27 665.26 546.33 665.3 Z" id="Serbia" data-med_age="41.2" data-d_per_mil="1850.238"/>
<path d="M 493.95 668.4 492.61 665.26 494.23 663.52 494.01 661.96 492.12 659.37 491.6 656.27 492.29 654.8 494.89 654.37 494.33 652.03 494.79 649.47 498.82 646.37 500.12 647.94 501.36 646.94 498.21 642.74 502.86 641.59 503.02 643.37 506.2 644.6 510.89 649 513.44 650.04 516.23 649.55 519.98 652.29 523.97 653.65 524.02 655.12 521.95 655.97 521.55 657.42 519.66 656.96 519.19 658.55 520.47 659.64 520.12 662.14 516.36 664.45 514.98 664.06 514.06 660.65 513.02 661.05 512.12 663.52 509.65 667.49 507.85 671.78 509.56 673.68 509.54 677.03 510.15 679.47 506.6 677.93 505.8 675.62 501.5 671.99 499.25 671.02 497.44 669.35 493.95 668.4 Z" id="Montenegro" data-med_age="39.1" data-d_per_mil="3838.86"/>
<path d="M 241.26 472.08 250.46 467.39 253.77 466.64 254.21 469.7 257.33 468.92 261.73 471.24 265.37 469.45 266.26 467.87 266.83 467.89 268.96 468.35 268.62 466.33 272.2 467.17 273.76 465.73 276.17 468.06 278.33 468.39 280.35 471.42 284.39 471.03 285.13 472.69 289.19 474.72 285.65 481.62 288 483.56 290.94 483.77 293.23 486.38 293.1 488.64 295.76 491.31 295.78 494.22 292.67 496 291.96 498.32 289.72 497.16 288.31 498.66 287.28 501.35 285.71 503.47 287.93 509.08 286.38 511.43 284.21 511.16 281.65 512.13 280.52 509.44 278.67 507.42 277.33 507.43 274.51 504.71 272.73 504.65 273.09 501.93 272.03 500.82 273.62 496.75 272.83 496.2 270.73 497.83 270.2 499.98 266.72 501 262.42 499.71 263.73 497.85 262.61 496.19 263.42 492.91 261.21 491.09 257.58 490.74 256.16 491.24 256.15 488.32 250.87 485.97 250.66 482.05 248.97 479.85 244.25 480.8 243.07 478.71 241.63 477.71 242.21 475.1 241.26 472.08 Z" id="Belgium" data-med_age="41.8" data-d_per_mil="2435.539"/>
<path d="M 301.53 595.22 299.26 590.83 297.64 589.86 298.74 587.2 297.58 585.4 297.86 583.49 293.44 582.85 290.5 583.95 289.12 585.38 290 587.47 287.12 589.65 284.83 587.84 286.96 587.17 287.82 584.36 286.75 582.13 288.03 579.2 292.91 575.65 293.32 571.45 295.82 570.6 297.34 568.56 301.67 564.91 302.53 562.12 300.37 562.35 302.6 559.14 305.39 559.47 306.22 561.14 308.58 560.85 311.77 557.48 312.69 558.27 319.55 558.1 321.01 557.03 325.19 557.85 324.36 555.18 325.5 553.73 328.31 553.16 329.4 555.4 330.66 554.83 332.32 556.43 334.04 555.83 338.02 556.53 342.27 559.22 343.84 562.1 341.82 565.46 341.26 566.97 342.73 570.19 347.08 571.16 347.35 573.18 351.29 575.03 353.97 573.28 355.19 571.59 356.53 572.95 356.47 574.6 355.16 579.02 356.59 580.13 356.07 582.16 350.7 580.59 349.73 584.22 351.43 584.96 350.77 586.91 351.85 588.44 349.99 589.4 348.01 585.94 344.12 587.75 341.92 587.59 340.47 585.82 340.33 582.99 337.92 582.99 337.2 584.38 337.77 586.8 336.94 589.09 334.77 591.2 332.96 595.17 334.27 596.68 333.27 598.47 331.77 598.27 331.2 595.54 329.56 594.68 330.65 592.79 326.96 591.43 324.17 587.87 324.54 584.22 322.55 584.21 322.12 585.47 318.58 588.24 319.1 591.16 317.72 591.95 317.03 594.04 314.5 595.92 312.51 595.6 309.9 594.17 307.49 595.66 303.6 596.42 301.53 595.22 Z" id="Switzerland" data-med_age="43.1" data-d_per_mil="1401.756"/>
<path d="M 492.61 665.26 488.85 664.09 482.25 660.45 480.85 658.65 478.63 659.12 477.3 658.08 478.62 657.4 477.31 655.06 474.68 653.6 471.65 650.32 471 646.7 467.39 645.56 463.07 641.83 461.09 640.54 460.4 639.01 455.61 634.48 454.12 633.99 452.06 631.27 449.87 624.25 445.78 619.91 444.47 620.65 442.83 618.32 443.58 609.22 446.87 608.46 450.53 612.46 452.26 613.01 453.23 610.26 455.29 607.66 459.95 608.18 462.04 606.74 466.1 608.36 467.33 607.29 469.28 608.25 470.21 607.64 472.4 608.38 474.12 607.2 476.45 609.12 477.97 608.71 479.56 606.96 482.46 607.59 483.08 606.39 486 607.1 487.24 608.01 490.47 607.22 492.7 609.52 492.51 610.94 494.37 611.93 496.41 611.58 501.06 609.93 502.27 610.92 501.84 613.95 499.18 619.27 499.17 622.4 499.88 624.01 502.74 624.47 503.86 626.25 508.5 629.25 507.55 630.58 502.51 631.94 506.66 635.81 507.73 638.33 507.54 640.35 505.17 639.54 502.86 641.59 498.21 642.74 501.36 646.94 500.12 647.94 498.82 646.37 494.79 649.47 494.33 652.03 494.89 654.37 492.29 654.8 491.6 656.27 492.12 659.37 494.01 661.96 494.23 663.52 492.61 665.26 Z" id="Bosnia and Herz." data-med_age="42.5" data-d_per_mil="4118.943"/>
<path d="M 459.39 543.1 456.51 539.78 455.85 537.26 453.98 535.3 454.1 533.15 455.2 531.05 455.01 529.7 455.93 526.33 457.07 524.19 458.49 523.31 461.04 524.13 463.48 524.04 468.13 521.04 468.72 518.92 470.18 518.56 471.35 516.74 471.8 512.84 474.62 510.87 478.27 506.59 481.16 505.93 483.11 506.09 483.41 508.46 486.5 507.77 487.12 505.26 488.62 504.57 490.03 502.73 493.26 506.91 495.4 506.83 495.64 511.14 498.41 510.32 500.25 511.28 501.1 508.01 503.21 507.02 503.54 505.74 506.96 505.73 509.03 504.74 510.57 506.13 512.79 506.75 514.58 503.48 516.5 503.62 517.31 502.36 519.93 502.87 522.72 502.11 525.02 503.48 525.83 502.69 528.23 503.9 529.3 505.99 532.19 506.42 535.34 507.74 537.64 507.83 535.94 513.12 535.7 517.28 533.54 520.26 534.06 524.02 528.68 526.55 527.31 525.88 525.59 523.34 522.83 522.18 518.33 524.56 513.16 523.47 508.74 525.12 507.44 530.43 506.43 531.8 501.24 535.49 496.65 533.72 495.05 534.46 494.83 536.64 491.01 538.3 487.89 538.58 485.2 539.49 483.93 541.24 484.69 544.59 483.66 545.74 481.47 545.66 476.69 547.1 470.39 547.88 468.69 547.51 464.79 545.4 462.32 542.97 459.39 543.1 Z" id="Slovakia" data-med_age="41.2" data-d_per_mil="3052.702"/>
<path d="M 481.16 505.93 478.27 506.59 474.62 510.87 471.8 512.84 471.35 516.74 470.18 518.56 468.72 518.92 468.13 521.04 463.48 524.04 461.04 524.13 458.49 523.31 457.07 524.19 455.93 526.33 455.01 529.7 453.68 527.17 450.65 527.11 449.78 526.04 447.16 525.84 445.87 527.68 441.71 527.68 437.44 525.04 435.73 525.57 431.75 523.8 429.03 523.03 424.59 522.86 424.32 528.52 422.18 528.35 420.87 530.81 420.8 532.81 417.18 531.73 415.27 533.79 411.41 533.25 409.87 530.69 407.27 529.45 403.93 525.48 402.02 525.77 400.48 524.57 399.1 522.32 397.25 521.83 394.4 517.89 392.63 516.93 391.03 517.16 388.94 515.01 386.55 509.56 384.81 507.94 385.81 507.06 386.78 504.15 385.64 502.45 382.57 501.07 381.41 497.93 379.96 496.59 380.95 494.98 383.28 498.38 383.74 496.12 386.2 493.04 388.86 492.81 390.66 491.63 392.17 492.44 393.43 490.38 395.63 490.19 396.6 488.19 398.55 487.03 399.74 487.69 401.21 485.1 405.24 484.51 406.01 483.16 408.06 482.54 410.82 480.62 412.48 480.5 411.42 476.95 413.97 477.2 416.53 479.32 416.32 480.89 417.71 481.66 419.25 480.58 421.74 480.4 421.8 476.67 425.1 477.43 426.99 480.65 431.49 482.07 433.7 482.2 434.73 483.71 436.21 483.28 438.16 484.05 441.73 483.81 443.25 485.44 442.33 487.25 440.09 489.02 442.45 490.07 445.57 493.54 446.46 495.31 448.25 495.9 449.47 493.96 451.77 492.41 450.35 487.9 453.96 488.85 457.94 490.86 461.18 490.86 463.34 491.58 461.92 494.3 465.83 497.07 469.05 496.24 474.94 497.71 477.42 501.66 480.07 502.39 481.16 505.93 Z" id="Czechia" data-med_age="43.3" data-d_per_mil="3368.812"/>
<path d="M 572.43 682.15 572.73 679.85 571.71 675.52 572.53 672.74 571.36 672.26 569.91 670.13 568.8 667.17 564.85 666.17 562.57 664.94 559.27 661.67 560.55 661.16 561.92 657.87 559.71 655.56 560.11 651.76 558.93 650.02 560.01 648.6 563.8 647.29 566.62 641.93 566.78 640.06 564.98 639.37 563.31 637.37 558.06 634.88 556.57 631.06 555.43 630.37 554.09 627.79 554.25 623.44 557.15 621.31 556.97 618.77 558.16 617.31 562.05 619.09 564.19 619.41 564.29 620.83 562.19 622.06 562.07 624.88 563.34 625.59 569.78 623.23 572.41 622.89 574.81 623.54 577.8 623.35 583.77 623.7 586.81 623.01 588.75 621.62 593.69 622.13 597.08 621.19 602.59 621.45 603.96 622.01 607.1 620.98 610.48 618.81 612.33 615.16 614.69 611.62 617.92 609.58 624.46 606.85 628.53 604.28 632.43 604.68 635.07 606.57 639.01 605.28 640.84 606.75 643.68 605 645.53 607.96 649.85 608.95 653.43 608.69 655.71 607.96 656.35 611.01 657.2 612.4 656.04 615.82 653.22 616.02 650.66 617.14 649.79 618.6 649.29 621.63 648.44 623.35 648.13 626.68 648.92 628.59 649.9 633.83 647.26 634.38 647.64 635.55 645.97 636.71 646.68 638.21 644.42 638.87 644.23 641.07 646.83 640.52 649.93 642.6 649.92 644.51 653.08 647.02 654.69 647.75 655.69 649.86 652.17 650.19 650.22 651.28 648.21 653.35 645.29 651.97 643.88 650.69 641.76 650.29 641.24 651.32 639.02 651.23 637.61 653.59 634.1 655.31 632.18 655.51 631.52 659.02 629.03 659.76 628.79 662.24 626.82 661.81 624.14 663.53 626.76 667 627.41 669.14 626.72 671.09 623.01 673.09 621.65 672.52 619.62 673.98 617.36 674.02 616.72 674.98 612.78 676.79 609.64 675.13 605.72 674.42 604.34 674.88 600.36 674.55 598.68 672.05 597.6 673.06 593.11 674.3 591.29 675.77 588.62 676.25 583.59 679.32 580.69 679.2 578.23 679.7 576.61 681.87 572.43 682.15 Z" id="Bulgaria" data-med_age="44.7" data-d_per_mil="4488.408"/>
<path d="M 664.71 570.49 665.36 572.68 666.05 578.88 665.44 579.74 659.25 582.25 657.21 581.29 656.29 577.78 653.96 579.58 654.3 581.39 656.05 583.55 654.08 584.97 654.1 588.08 655.91 590.04 653.58 594.57 654.66 597.36 654.35 598.5 655.81 601.72 655.71 607.96 653.43 608.69 649.85 608.95 645.53 607.96 643.68 605 640.84 606.75 639.01 605.28 635.07 606.57 632.43 604.68 628.53 604.28 624.46 606.85 617.92 609.58 614.69 611.62 612.33 615.16 610.48 618.81 607.1 620.98 603.96 622.01 602.59 621.45 597.08 621.19 593.69 622.13 588.75 621.62 586.81 623.01 583.77 623.7 577.8 623.35 574.81 623.54 572.41 622.89 569.78 623.23 563.34 625.59 562.07 624.88 562.19 622.06 564.29 620.83 564.19 619.41 562.05 619.09 558.16 617.31 557.72 615.59 555.41 614.97 553.77 612.27 555.12 609.98 557.15 610.18 557.08 608.3 554.93 608.05 552.02 606.59 550.26 608.19 548.72 612.45 547.61 612.53 545.31 609.44 542.92 608.9 539.74 609.66 538.17 607.81 535.46 608.07 534.49 606.36 537.12 605.38 534.83 604.13 535.4 599.53 533.98 598.66 531.21 598.39 526.47 596.5 523.68 594.1 522.24 590.99 522.27 587.58 520.96 588.17 518.18 584.78 514.72 583.46 512.56 580.71 513.09 579.81 518.14 579.42 519.41 578.89 520 576.65 521.47 575.66 524.65 576.11 526.23 574.65 526.44 572.28 527.62 566.99 529.03 566.25 530.42 564.24 530.09 561.93 531.19 560.76 531.88 558.44 531.39 556.74 533.73 552.79 533.94 549.85 535.74 547.31 535.19 545.09 537.56 542.33 538.7 539.13 540.53 538.54 541.22 537.22 542.99 537.62 545.6 535.52 547.05 532.48 547.53 531.04 549.63 530.6 550.42 528.34 551.89 528.51 554.18 530.11 556.16 530.19 557.21 529.26 560.56 529.05 561.92 530.04 564.13 528.99 567.44 529.84 570.22 528.01 572.71 527.86 574.79 529.72 576.69 530.18 578.34 531.85 581.29 530.68 583.33 526.59 590.56 524.19 596.59 521.48 597.66 518.13 597.48 516.11 601.93 513.98 604.72 513.35 606.98 514.09 607.72 515.37 611.56 518.26 614.75 524.37 617.58 526.41 618.69 528.19 622.13 531.74 623.75 532.08 626.28 535.29 629.52 536.42 634.99 544.58 635.28 547.54 636.07 548.95 635.81 552.56 635.79 559.03 638.26 564.42 639.11 568.99 640.55 570.96 642.12 571.52 643.75 573.7 649.81 574.19 651.19 571.56 653.4 570.95 658.17 566.82 662.3 566.88 663.83 567.62 664.71 570.49 Z" id="Romania" data-med_age="43" data-d_per_mil="3071.555"/>
<path d="M 640.55 570.96 639.11 568.99 638.26 564.42 635.79 559.03 635.81 552.56 636.07 548.95 635.28 547.54 634.99 544.58 629.52 536.42 626.28 535.29 623.75 532.08 622.13 531.74 618.69 528.19 617.58 526.41 614.75 524.37 611.56 518.26 607.72 515.37 606.98 514.09 604.72 513.35 601.93 513.98 602.5 512.17 604.6 510.17 606.31 510.78 607.46 509.36 609.71 509.72 611.79 507.46 613.99 506.07 617.76 505.63 620.95 507.51 623.62 507.73 625.97 509.37 628.24 509.2 630.66 511.58 631.08 509.3 634.66 509.12 636.13 511.11 638.14 512.55 641.21 511.42 643.01 512.96 642.54 514.76 643.68 518.93 643.17 520.97 648.29 525.07 650.66 523.71 652.25 529.11 653.29 529.89 653.4 532.52 659.58 533.8 660.33 535.19 661.12 540.34 664.13 541.8 663.85 543.17 661.78 543.69 658.4 543.25 657.18 545.15 655.02 544.25 653.45 544.89 651.13 546.92 649.83 542.95 646.49 546.34 647.58 550.2 649.27 551.58 648.61 553.97 649.38 555.86 646.3 557.82 646.9 560.41 644.81 562.75 643.78 565.49 645.18 566.99 644.73 568.95 641.34 569.35 640.55 570.96 Z" id="Moldova" data-med_age="37.6" data-d_per_mil="2553.414"/>
<path d="M 537.64 507.83 540.95 507.89 542.03 506.53 539.73 505.21 539.79 502.7 539.11 500.31 537.38 497.2 538.65 493.58 539.45 492.9 542.42 486.29 546.32 480.03 547.91 478.23 549.52 475 553.28 473.75 553.32 471.68 554.5 470.37 554.12 468.29 552.53 466.31 551.58 463.95 553.63 463.08 550.94 461.7 549.68 460.32 548.39 457.25 546.38 456.04 544.32 453.54 544.94 451.89 543.17 449.58 542.63 447.63 544.64 446.32 548.14 447.02 551.23 443.3 552.55 439.23 557.14 438.24 560.91 436.8 562.6 435.53 565.7 435.52 571.42 434.11 575.45 433.77 577.42 434.46 580.66 433.86 581.42 434.76 584.48 434.14 588.32 434.63 591.85 433.68 592.45 435.51 593.95 436.96 597.15 435.33 599.83 435.47 605.23 434.86 606.91 432.21 609.04 434.59 610.55 433.16 612.62 433.05 613.68 435.25 616.17 431.98 617.72 431.32 618.25 429.82 619.99 429.89 623.25 434.51 625.52 433.61 627.23 430.6 628.93 431.36 634.29 428.76 637.17 429.92 637.51 431.3 641.24 432.75 641.85 429.38 640.84 427.28 638.92 425.54 638.69 422.3 639.17 419.28 641.19 414.36 641.09 412.93 643.35 411.75 645.41 412.13 646.96 409.74 652.2 408.54 654.65 409.5 657.05 408.46 659.07 406.32 658.55 401.16 660.92 400.53 663.99 401.09 666.52 400.53 669.24 396.54 672.82 396.03 674.16 396.84 676.01 394.53 677.55 394.03 682.48 397.14 683.25 399.53 686.6 402.07 689.97 403.86 690.01 405.55 686.9 407.32 689.43 410.52 690.07 412.69 691.84 414.91 693.37 415.47 696.73 414.84 698.14 415.97 701.44 413.64 703.27 413.14 705.3 416.08 707.14 415.65 712.28 422.68 711.75 424.19 713.47 426.87 715.44 427.39 716.84 429.08 718.34 428.93 719.7 426.47 723.37 425.14 726.71 427.33 728.45 426.09 732.26 426.88 732.52 425.62 735.02 422.69 738.66 420.67 739.41 419.05 741.03 417.99 742.68 419.63 744.7 420.04 745.31 421.97 748.23 423.93 750.79 424.28 753.45 426.28 755.36 424.48 754.44 421.85 755.87 421.2 757.33 422.37 759.79 422.45 761.42 421.7 765.31 422.2 767.01 423.05 769.81 420.44 771.91 422.44 774.34 421.27 776.1 421.15 777.98 423.13 781.04 423.6 783.1 421.01 785.27 421.3 784.69 423.38 787.78 425.92 788.33 427.9 786.85 431.64 787.08 433.49 784.07 435.5 786.25 437.72 789.75 436.37 790.18 438.68 787.87 439.03 786.81 441.24 787.25 445.1 790.18 444.16 791.12 446.03 793.17 447.85 792.28 449.97 795.17 450.54 794.33 453.84 795.07 455.63 795.71 459.87 795.07 461.33 790.62 462.97 789.4 462.9 786.65 464.51 783.04 465.22 782.22 467.58 782.59 470.04 780.57 472.15 777.76 473.8 777.4 476.81 778.2 478.98 777.87 481.02 779.86 482.11 779.1 483.64 780.03 485.49 779.02 486.62 774.92 487.61 772.96 489.08 770.96 489.47 769.99 491.22 769.08 495.39 767.07 494.83 762.72 499.91 762.57 501.85 760.58 501.24 756.68 504.11 755.5 506.99 754.02 506.48 749.9 508.41 748.37 510.25 747.04 513.26 745.39 515.11 744.01 518.37 741.59 517.75 739.99 521.87 737.28 524.67 740.03 529.84 743.39 533.49 739.64 532.98 738.87 530.91 736.89 529.77 733.66 531.35 730.88 529.52 726.63 530.12 721.94 529.32 719.18 531.39 719.07 533.09 717.28 534.51 715.12 533.33 712.17 534.18 708.93 535.73 706.78 535.92 703.2 538.51 699.2 538.5 696.64 537.33 692.25 536.02 694.43 533.57 693.26 532.6 694.41 530.7 697.16 530.85 699.25 529.52 695.85 527.96 693.89 528.58 690.32 528.65 689.22 529.63 686.91 529.61 685.7 530.84 683.18 531.32 682.17 532.29 679.71 532.35 676.93 533.84 673.88 536.79 674.88 539.37 672.67 546.31 672.55 547.62 670.08 552.75 668.64 554.97 665.91 555.28 663.94 558.25 665.23 559.53 663.59 561.29 662.32 559.66 661.12 560.12 661.67 563.13 663.14 565.53 664.36 564.38 665.62 567.73 664.71 570.49 663.83 567.62 662.3 566.88 658.17 566.82 653.4 570.95 651.19 571.56 649.81 574.19 643.75 573.7 642.12 571.52 640.55 570.96 641.34 569.35 644.73 568.95 645.18 566.99 643.78 565.49 644.81 562.75 646.9 560.41 646.3 557.82 649.38 555.86 648.61 553.97 649.27 551.58 647.58 550.2 646.49 546.34 649.83 542.95 651.13 546.92 653.45 544.89 655.02 544.25 657.18 545.15 658.4 543.25 661.78 543.69 663.85 543.17 664.13 541.8 661.12 540.34 660.33 535.19 659.58 533.8 653.4 532.52 653.29 529.89 652.25 529.11 650.66 523.71 648.29 525.07 643.17 520.97 643.68 518.93 642.54 514.76 643.01 512.96 641.21 511.42 638.14 512.55 636.13 511.11 634.66 509.12 631.08 509.3 630.66 511.58 628.24 509.2 625.97 509.37 623.62 507.73 620.95 507.51 617.76 505.63 613.99 506.07 611.79 507.46 609.71 509.72 607.46 509.36 606.31 510.78 604.6 510.17 602.5 512.17 601.93 513.98 597.48 516.11 597.66 518.13 596.59 521.48 590.56 524.19 583.33 526.59 581.29 530.68 578.34 531.85 576.69 530.18 574.79 529.72 572.71 527.86 570.22 528.01 567.44 529.84 564.13 528.99 561.92 530.04 560.56 529.05 557.21 529.26 556.16 530.19 554.18 530.11 551.89 528.51 550.42 528.34 549.63 530.6 547.53 531.04 547.05 532.48 546.49 530.67 544.4 528.99 542.35 529.79 539.92 526.81 538.04 527.12 536.16 523.7 534.06 524.02 533.54 520.26 535.7 517.28 535.94 513.12 537.64 507.83 Z" id="Ukraine" data-med_age="41.4" data-d_per_mil="2348.642"/>
<path d="M 248.24 729.69 247.1 732.1 242.57 729.01 240.57 729.09 239.94 726.25 244.02 726.33 244.99 725.92 247.66 728.26 248.24 729.69 Z M 198.67 744.21 198.84 745.65 196.58 747.68 193.45 748.88 191.23 748.1 191.42 746.54 192.94 744.9 197.25 743.42 198.67 744.21 Z M 214.75 735.66 213.19 733.8 217.16 731.87 221.79 728.66 226.55 727.65 228.79 728.84 227.25 730.1 228.83 732.12 231.2 731.54 233.27 732.51 232.74 734.53 230.17 737.42 228.05 740.99 225.02 742.79 223.38 740.49 220.34 739.91 219.86 736.48 218.38 735.39 215.3 737.26 214.75 735.66 Z M 30.32 759.31 30.64 752.76 29.98 750.46 32.27 747.18 35.26 745.04 36.45 742.36 41.08 742.35 43.18 738.71 40.16 738.37 39.68 736.19 37.09 731.5 39.45 728.03 39.66 725.83 42.49 724 46.5 720.35 45.79 717.96 43.56 717.34 43.82 716.06 42.43 714.79 42.84 713.49 41.85 711.6 42.54 708.79 41.52 708.17 39.76 705.17 39.47 703.14 45.91 704.7 48.8 704.92 49.66 702.57 51.19 701.52 52.7 698.41 50.87 695.41 51.37 693.02 53.56 692.82 55.77 690.95 55.1 688.79 56.19 687.33 55.86 685.67 56.78 684.35 56.87 681.78 57.72 679.64 56.29 675.87 58.89 675.03 60.16 673.1 62.5 671.07 65.45 670.9 68.66 669.07 71.33 665.92 70.47 664.37 67.52 662.59 66.09 662.68 65.86 660.73 67.34 658.06 66.89 656.58 60.11 654.17 58.88 654.38 57.27 652.98 55.98 654.95 52.7 655.29 47.47 652.69 41.58 653.22 39.42 652.77 39.04 650.5 41.61 648.62 40.31 646.92 40.44 644.96 38.11 645.61 33.2 645.57 30.72 646.88 28.16 648.02 29.12 642.91 31.69 640.23 31.48 636.77 32.7 633.15 33.03 630.56 30.01 632.89 28.78 631.5 30.05 629.18 32.66 627.85 28.9 626.39 29.47 624.05 27.86 620.36 29.42 618.38 32.32 618.17 33.83 616.5 36.71 615.87 38.67 617.51 40.96 617.62 45.14 616.49 46.28 612.95 47.62 613.08 50.4 611.86 51.11 610.78 53.84 610.1 54.56 611.57 56.97 611 62.16 614.15 63.83 617.18 75.43 620.35 80.34 620.3 82.72 621.44 85.44 621.6 87.41 620.56 89.07 623.02 93.67 624.13 96.4 626.03 103.87 629.45 107.44 630.49 112.79 631.47 119.11 630.53 120.18 631.32 123.26 630.8 124.81 632.58 129.72 635.66 131.78 635.65 133.34 634.65 136.36 634.67 140.77 637.33 141.9 638.48 146.37 640.19 152.23 638.84 152.66 641.03 155.79 641.77 158.23 643.09 157.03 647.72 159.74 647.88 163.66 649.86 164.96 650.95 168.03 651.43 168.16 652.88 171.39 655.12 173.18 655.77 175.03 654.83 179.34 659.06 182.95 658.58 184.58 660.13 190.82 660.56 191.45 657.09 192.61 657.07 195.75 658.86 198.55 659.5 199.43 661.1 202.66 661.43 203.85 664.18 203.22 666.61 204.92 668.12 208.32 666.81 211.9 668.72 212.36 670.38 214.03 670.77 215.41 669.57 217.82 669.54 221.62 672.29 224.78 670.75 226.45 670.78 229.03 669.69 231.54 670.91 233.16 670.96 233.11 672.84 235.27 673.64 234.18 675.45 232.64 674.86 231.6 677.5 233.03 679.29 233.1 682.11 231.5 684.28 227.51 686.96 224.72 688.23 218.83 690.19 216.05 691.52 213.45 694.44 211.56 695.43 203.84 696.49 202.35 696.44 192.5 698.69 186.73 703.84 189.15 705.37 189.12 706.68 184.63 707.54 179.42 714.46 176.57 716.71 175.25 718.67 173.75 719.55 168.29 726.12 165.46 730.33 165.3 734.78 166.43 738.17 166.25 740.52 167.49 743.62 168.9 745.38 172.07 746.99 173.23 748.54 170.22 751.35 167.95 751.5 167.18 753.04 162.42 754.01 160.61 756.19 158.81 756.55 158.55 759.53 156.92 759.71 155.74 761.24 155.21 764.08 154.13 764.69 151.72 768.64 151.47 770.98 152.78 772.62 149.06 773.19 146.17 772.19 145.7 773.25 143.35 771.82 141.83 771.99 137.96 774.37 135.49 775.2 131.84 778.64 129.4 784.39 127.65 785.06 125.75 787.64 123.2 788.11 120.62 785.4 116.59 785.33 114.21 787.82 111.25 787 108.82 785.73 102.59 784.47 100.85 785.3 97.61 783.64 95.17 783.63 93.31 782.64 90.98 782.8 89.3 782 86.1 782.22 82.56 781.38 80.12 784.14 76.17 785.41 72.93 784.46 71.06 785.24 67.62 785.48 64.93 788.19 63.5 791.06 62.06 789.87 61.35 792.45 57.95 793.06 54.88 790.58 53.07 787.91 50.9 787.32 47.37 778.54 48.19 776.89 46.27 775.9 45.9 773.57 47.13 772.09 45.76 768.26 41.95 764.1 39.58 762.05 36.29 760.37 30.32 759.31 Z" id="Spain" data-med_age="45.5" data-d_per_mil="1912.602"/>
<path d="M 797.08 776.35 794.85 775.23 796.11 774 798.55 773.43 799 775.11 797.08 776.35 Z M 778.3 789.64 777.38 790.11 772.76 789.9 771.39 789.35 767 783.08 769.75 782.96 771.42 779.29 774.35 778.26 777.54 779.72 782.39 775.68 785.38 775.3 786.93 773.91 789.23 776.6 792.72 776.03 792.67 781.12 787.3 785.55 783.99 786.89 783.06 788.62 779.33 788.19 778.3 789.64 Z" id="Cyprus" data-med_age="37.3" data-d_per_mil="712.05"/>
<path d="M 434.86 824.23 432 824.16 430.59 821.2 432.78 821.31 434.93 822.84 434.86 824.23 Z" id="Malta" data-med_age="42.4" data-d_per_mil="922.302"/>
<path d="M 36.22 111.17 32.76 109.03 30.52 108.97 28.98 107.99 30.5 104.93 32.43 105.81 38.33 106.41 38.99 104.21 40.48 105.41 41.5 103.66 40.87 101.79 41.79 97.52 40.42 94.8 41.15 91.78 42.8 90.83 42.3 88.97 40.32 88.93 35.89 85.91 35.7 85.11 32.65 84.05 31.01 84.97 28.92 83.31 29.47 80.14 31.71 80.32 33.14 81.94 34.75 81.54 37.25 82.79 37.72 81.68 41.12 82.77 42.81 82.56 45.69 84.33 47.26 85.95 50.17 87.23 52.3 85.06 51.69 84.26 49.27 84.69 47.1 82.96 45.64 80.97 47.61 79.84 50.1 79.81 54.1 78.48 53.85 76.85 51.4 77.47 50.81 74.51 47.32 73.38 46.89 71.43 43.2 71.79 39.83 70.49 36.84 70.51 36.97 68.97 35.5 67.2 32.99 66.15 36.43 64.11 38.18 64.67 38.95 62.71 40.27 61.77 42.59 65.63 42.62 61.14 45.51 57.54 49.75 56.29 52.18 60.11 52.67 62.48 56.54 63.25 54.08 59.77 54.02 55.55 57.72 53.59 58.65 55.29 59.94 54.78 61.16 56.29 60.87 59.89 62.68 61.37 63.52 63.95 62.59 66.18 64.2 66.59 63.65 68.41 64.91 69.8 63.82 72.66 61.63 74 60.11 76.36 60.4 78.71 59.02 79.88 59.65 82.25 62.48 81.08 64.09 79.42 67.14 78.5 66.37 83.11 69.38 81.28 71.37 78.57 72.62 72.48 73.37 71.45 76.69 71.8 76.31 76.96 77.2 78.72 76.65 81.49 78.46 82.3 79.47 80.65 79.79 77.64 82.36 75.55 84.02 76.49 85.47 75.19 87.85 75.05 89.23 78.79 88.18 81.08 90.51 83.18 91.27 79.15 92.29 77.69 95.28 79.69 96.41 84.67 97.96 84.83 99.53 82.9 102.48 81.02 104.73 84.22 107.82 84.02 109.29 82.18 109.81 77.54 113.78 77.78 115.73 79.59 114.69 80.94 116.41 82.32 114.85 84.35 116.41 86.51 121.57 87.06 121.09 89.16 118.39 90.16 118.74 91.82 120.58 92.83 122.19 92.74 121.97 95.54 118.9 97.67 119.47 99.49 121.92 100.92 125.45 106.85 127.12 108.12 124.68 112.36 125.39 113.72 123.61 116.12 124.06 118.29 122.39 119.39 118.77 122.8 117.06 122.33 116.48 123.82 111.86 123.63 109.85 128.22 107.74 128.13 103.79 130.39 101.02 127.49 99.33 128.96 96.19 129.53 93.47 129.32 88.51 131.81 85.2 132.87 81.97 133.1 72.08 130.87 72.26 132.46 69.26 134.93 66.62 135.05 60.85 134.45 56.09 131.25 52.83 127.31 48.86 125.19 48 123.11 47.86 120.55 47.04 119.96 43.37 113.61 41.32 113.68 38.49 112.73 36.22 111.17 Z" id="Iceland" data-med_age="37.3" data-d_per_mil="100.328"/>
<path d="M 417.17 382.16 416.37 385.48 412.43 384.38 411.07 383.31 411.2 380.2 413.04 379.79 417.17 382.16 Z M 381.26 386.42 378.6 389.82 377.35 389.37 379.64 386.63 381.26 386.42 Z M 370.48 390.66 373.05 391.23 374.01 393.23 372.88 395.49 370.79 395.08 368.69 396 365.13 393.67 363.02 393.05 364.03 391.41 362.83 390.17 363.54 388.73 365.62 388.4 367.47 390.21 370.48 390.66 Z M 349.46 388.21 350.17 390.38 348.89 390.88 346.41 389.56 346.11 388.06 344.4 386.3 346.59 385.79 349.46 388.21 Z M 360.61 386.57 360.41 389.03 359.18 393.29 357.82 391.21 358.55 389.18 360.61 386.57 Z M 334.45 347.43 332.3 348.9 330.92 346.28 332.32 343.94 334.36 343.6 335.17 346.03 334.45 347.43 Z M 363.55 333.91 362.18 336.93 359.98 335.52 363.55 333.91 Z M 346.85 377.5 345.08 376.24 346.82 374.99 347.85 375.95 353.32 373.42 357.27 376.29 359.76 379.34 360.04 382.66 358.79 386.12 356.43 386.94 353.44 386.17 350.8 383.42 349.24 383.67 347.79 381.82 347.8 379.62 346.85 377.5 Z M 341.84 391.98 339.26 392.15 338.62 391.03 334.78 389.88 331.55 389.87 331.34 386.94 331.93 384.43 331.4 377.85 328.94 376.76 327.27 374.45 326.38 375.48 324.46 374.69 325.51 371.53 325.66 368.92 328.54 366.51 327.2 362.64 324.96 361.59 325.36 359.62 325.43 351.66 326.5 349.65 328.88 350.97 332.09 353.55 333.17 353.36 333.33 349.92 336.12 346.1 338.93 346.34 338.76 344.04 340.37 341.68 342.24 341.07 344.12 341.71 345.24 339.83 339.83 341.56 338.17 340.71 332.69 342.6 330.02 347.99 331.4 348.64 330.41 350.5 328.69 348.78 327.48 345 332 338.67 334.07 339.12 336.55 337.87 339.68 338.37 341.95 337.83 343.98 336.06 346.68 331.1 348.9 328.07 351.76 327.84 356.01 325.57 354.64 328.53 356.1 331.63 356.05 336.2 354.47 338.33 352.66 343.78 353.85 349.73 353.96 351.8 355.29 352.66 359.78 352.31 361.61 354.26 360.97 356.9 357.95 360.82 352.14 361.25 352.73 362.95 352.48 366.61 349.91 368.93 349.55 371.35 346.61 372.13 347.41 373.24 345.56 374.76 343.9 377.8 345.5 381.92 345.16 383.09 342.54 384.03 343.76 386.47 345.75 387.75 346 391.18 343.29 390.4 341.84 391.98 Z M 374.94 370.71 376.52 370.49 375.49 365.63 373.39 364.97 378.18 361.24 381.3 361.82 383.09 363.03 381.78 365.73 383.05 368.7 383.13 370.74 381.71 373.06 380.62 372.89 378.65 374.63 378.42 377.2 381.23 378.75 380.76 381.25 378.02 381.99 376.29 384.04 377.91 387.12 375.24 388.49 378.13 390.93 375.44 394.33 372.53 390.28 372.4 389.08 374.23 387.74 371.03 383.24 368.04 382.36 365.91 382.89 365.62 381.1 363.57 379.29 365.21 378.23 363.47 372.36 366.87 370.1 367.15 368.9 369.98 365.76 371.75 368.28 373.54 368.83 375.16 367.49 375.96 370.33 374.94 370.71 Z" id="Denmark" data-med_age="42.3" data-d_per_mil="561.987"/>
<path d="M 30.32 759.31 28.47 759.38 22.13 761.94 19.12 760.86 16.1 758.39 11.42 757.37 9.08 755.82 5.88 755.99 1.96 756.76 1.1 756.22 4.23 752.05 7.27 745.68 7.04 744.09 8.92 738.02 7.6 735.93 9.54 733.85 10.9 731.24 12.13 724.61 10.23 723.4 8.45 724.19 4.56 724.3 5.57 721.28 4.95 718.42 8.59 718.7 10.93 717.36 10.43 713.98 8.46 715.44 7.65 717.97 3.77 718 1 716.39 1.44 714.09 3.37 711.72 3.64 709.47 6.01 706.12 6.87 702.31 11.39 699.98 13.34 696.6 19.46 687.32 18.84 685.71 19.96 684.23 23.82 676.49 24.77 675.19 27.36 668.57 27.77 665.93 27.19 663.02 27.16 659.59 27.69 657.98 27.96 652.67 27.35 651.52 28.03 649.02 30.72 646.88 33.2 645.57 38.11 645.61 40.44 644.96 40.31 646.92 41.61 648.62 39.04 650.5 39.42 652.77 41.58 653.22 47.47 652.69 52.7 655.29 55.98 654.95 57.27 652.98 58.88 654.38 60.11 654.17 66.89 656.58 67.34 658.06 65.86 660.73 66.09 662.68 67.52 662.59 70.47 664.37 71.33 665.92 68.66 669.07 65.45 670.9 62.5 671.07 60.16 673.1 58.89 675.03 56.29 675.87 57.72 679.64 56.87 681.78 56.78 684.35 55.86 685.67 56.19 687.33 55.1 688.79 55.77 690.95 53.56 692.82 51.37 693.02 50.87 695.41 52.7 698.41 51.19 701.52 49.66 702.57 48.8 704.92 45.91 704.7 39.47 703.14 39.76 705.17 41.52 708.17 42.54 708.79 41.85 711.6 42.84 713.49 42.43 714.79 43.82 716.06 43.56 717.34 45.79 717.96 46.5 720.35 42.49 724 39.66 725.83 39.45 728.03 37.09 731.5 39.68 736.19 40.16 738.37 43.18 738.71 41.08 742.35 36.45 742.36 35.26 745.04 32.27 747.18 29.98 750.46 30.64 752.76 30.32 759.31 Z" id="Portugal" data-med_age="46.2" data-d_per_mil="1864.196"/>
<path d="M 543.17 449.58 541.97 448.04 541.52 444.33 541.65 439.8 542.11 438.6 541.18 436.65 539.28 436.07 538.69 434.84 534.32 434.28 534.18 431.79 535.98 427.66 538.09 425.47 540.25 424.38 542.24 422 540.93 415.08 539.95 413.8 540.04 411.81 538.39 410 533.95 402.19 531.12 395.03 533.18 395.6 536.86 393.73 540.12 392.82 541.58 394.06 543.21 393.9 546.55 390.7 548.48 390.73 547.61 388.14 548.26 386.78 551.23 386.45 552.39 383.27 554.58 383 555.5 381.6 557.08 382.85 557.02 384.91 560.2 383.93 560.14 382.06 558.49 380.42 556.19 380.33 556.89 378.39 556.7 376.39 557.82 374.72 556.53 370 557.61 366 560.5 364.92 561.56 362.36 561.62 360.32 566.03 359.75 566.1 357.79 567.19 355.22 562.88 355.35 563.02 351.08 563.55 349.73 563 347.51 565.66 345.94 566.97 342.78 569.09 342.11 570.74 342.78 571.58 341.53 574.83 341.6 574.75 338.55 577.17 333.49 579.72 332.04 582.33 333.74 583.03 332.46 585.77 331.74 587.73 334.29 591.35 331.77 596.35 332.22 596.71 335.98 599.09 337.86 601.05 335.16 602.55 334.71 602.96 333.17 605.95 332.52 606.87 331.38 610.62 331.84 614.34 334.14 615.33 335.24 617.49 334.99 618.92 339.16 618.06 341.89 620.96 343.98 622.48 346.9 620.72 349.73 621.11 353.04 626.14 354.37 627.25 355.16 626.81 358.42 628.95 358.84 631.92 363.23 634.83 364.4 638.13 364.58 640.24 366.39 640.3 371.16 642.08 371.03 644.88 369.42 647.58 369.68 650.77 370.86 649.87 371.99 650.79 373.49 654.17 374.19 655.45 375.15 656.14 377.27 654.43 378.08 653.25 381.39 651.1 384.68 649.65 385.52 645.84 386.04 644.65 384.56 642.36 384.69 639.73 386.19 640.17 388.31 639.13 390.43 641.84 392.66 643.66 393.05 645.36 395.52 644.46 396.83 647.34 399.2 647.24 400.82 648.4 403.89 650.3 405.47 650.41 406.64 652.2 408.54 646.96 409.74 645.41 412.13 643.35 411.75 641.09 412.93 641.19 414.36 639.17 419.28 638.69 422.3 638.92 425.54 640.84 427.28 641.85 429.38 641.24 432.75 637.51 431.3 637.17 429.92 634.29 428.76 628.93 431.36 627.23 430.6 625.52 433.61 623.25 434.51 619.99 429.89 618.25 429.82 617.72 431.32 616.17 431.98 613.68 435.25 612.62 433.05 610.55 433.16 609.04 434.59 606.91 432.21 605.23 434.86 599.83 435.47 597.15 435.33 593.95 436.96 592.45 435.51 591.85 433.68 588.32 434.63 584.48 434.14 581.42 434.76 580.66 433.86 577.42 434.46 575.45 433.77 571.42 434.11 565.7 435.52 562.6 435.53 560.91 436.8 557.14 438.24 552.55 439.23 551.23 443.3 548.14 447.02 544.64 446.32 542.63 447.63 543.17 449.58 Z" id="Belarus" data-med_age="40.3" data-d_per_mil="590.71"/>
<path d="M 286.38 511.43 287.93 509.08 285.71 503.47 287.28 501.35 288.31 498.66 289.72 497.16 291.96 498.32 291.56 499.95 293.24 503.76 295.74 505.69 297.29 506.06 297.16 507.98 295.65 509.2 294.57 513.76 291.49 512.69 288.8 513.78 286.38 511.43 Z" id="Luxembourg" data-med_age="39.7" data-d_per_mil="1441.367"/>
<path d="M 481.16 505.93 480.07 502.39 477.42 501.66 474.94 497.71 469.05 496.24 465.83 497.07 461.92 494.3 463.34 491.58 461.18 490.86 457.94 490.86 453.96 488.85 450.35 487.9 451.77 492.41 449.47 493.96 448.25 495.9 446.46 495.31 445.57 493.54 442.45 490.07 440.09 489.02 442.33 487.25 443.25 485.44 441.73 483.81 438.16 484.05 436.21 483.28 434.73 483.71 433.7 482.2 431.49 482.07 426.99 480.65 425.1 477.43 421.8 476.67 421.74 480.4 419.25 480.58 421.03 475.72 421.72 471.69 420 466.63 417.14 465.57 416.93 462.29 415.64 461.02 414.55 458.6 415.91 456.52 416.71 452.67 415.59 451.72 415.78 449.06 413.9 447.9 413.09 444.94 414.27 443.14 414.33 441.29 411.2 438.97 410.43 437.82 406.69 435.44 406.83 432.92 409.07 431.19 409.99 428.78 409.97 425.39 409.14 421.63 408.16 419.73 407.47 415.83 411.17 416.58 412.24 412.04 409.21 411.77 407.44 412.82 406.37 411.79 406.42 410.4 409.11 410.62 414.01 407.71 417.04 406.69 420.68 404.84 425.65 403.09 428.16 401.7 431.74 400.63 433 399.62 436.17 394.49 437.03 393.84 441.85 392.26 442.98 390.74 446.78 388.46 451.68 386.99 453.84 385.97 459.49 385.01 461.47 385.95 461.05 387.29 462.74 389.07 463.96 393.47 466.05 394.81 469.95 395.19 474.85 393.8 477.69 391.59 479.74 391.83 518.99 387.8 519.84 387.33 520.59 386.15 522.32 386.29 527.9 388.9 529.98 390.66 531.12 395.03 533.95 402.19 538.39 410 540.04 411.81 539.95 413.8 540.93 415.08 542.24 422 540.25 424.38 538.09 425.47 535.98 427.66 534.18 431.79 534.32 434.28 538.69 434.84 539.28 436.07 541.18 436.65 542.11 438.6 541.65 439.8 541.52 444.33 541.97 448.04 543.17 449.58 544.94 451.89 544.32 453.54 546.38 456.04 548.39 457.25 549.68 460.32 550.94 461.7 553.63 463.08 551.58 463.95 552.53 466.31 554.12 468.29 554.5 470.37 553.32 471.68 553.28 473.75 549.52 475 547.91 478.23 546.32 480.03 542.42 486.29 539.45 492.9 538.65 493.58 537.38 497.2 539.11 500.31 539.79 502.7 539.73 505.21 542.03 506.53 540.95 507.89 537.64 507.83 535.34 507.74 532.19 506.42 529.3 505.99 528.23 503.9 525.83 502.69 525.02 503.48 522.72 502.11 519.93 502.87 517.31 502.36 516.5 503.62 514.58 503.48 512.79 506.75 510.57 506.13 509.03 504.74 506.96 505.73 503.54 505.74 503.21 507.02 501.1 508.01 500.25 511.28 498.41 510.32 495.64 511.14 495.4 506.83 493.26 506.91 490.03 502.73 488.62 504.57 487.12 505.26 486.5 507.77 483.41 508.46 483.11 506.09 481.16 505.93 Z" id="Poland" data-med_age="41.8" data-d_per_mil="2567.77"/>
</g>
</svg>